<svg width="49" height="23" viewBox="0 0 49 23" fill="none" xmlns="http://www.w3.org/2000/svg">
<path d="M44.3548 12.3855L33.8381 10.7397L35.2343 17.0094L44.3548 12.3855Z" fill="#D12053"/>
<path d="M44.3548 12.3853L36.4288 1.36963L33.8381 10.7343L44.3548 12.3853Z" fill="#E2136E"/>
<path d="M33.5939 10.6122L25.291 0L36.1634 1.30065L33.5939 10.6122Z" fill="#D12053"/>
<path d="M29.8088 6.17406L25.1954 1.82617H26.4111L29.8088 6.17406Z" fill="#9E1638"/>
<path d="M46.6004 7.02881L44.6468 12.3217L41.4828 7.94723L46.6004 7.02881Z" fill="#D12053"/>
<path d="M36.4607 16.6854L44.1159 13.6116L44.4398 12.6348L36.4607 16.6854Z" fill="#E2136E"/>
<path d="M30.3344 22.4879L33.6152 10.9785L35.2768 18.4639L30.3344 22.4879Z" fill="#9E1638"/>
<path d="M46.903 7.07129L46.0961 9.25851L49 9.21073L46.903 7.07129ZM0 7.94724C0.143337 7.95785 0.281365 7.9844 0.435319 7.9844C0.583965 7.9844 0.711376 7.95785 0.870639 7.94724V12.603C1.32719 11.8226 1.90585 11.3077 2.75525 11.3077C4.28949 11.3077 4.94778 12.826 4.94778 14.2222C4.94778 15.8945 4.0559 17.4924 2.48982 17.4924C1.85276 17.5083 1.25818 17.1633 0.950271 16.6059C0.69014 16.8341 0.456554 17.1102 0.207042 17.3597H0.0106174L0 7.94724ZM0.849404 14.7956C0.849404 16.1546 1.42275 17.0996 2.37302 17.0996C3.59935 17.0996 3.99751 15.4485 3.99751 14.2806C3.99751 12.9216 3.55157 11.8545 2.48451 11.8386C1.23694 11.828 0.849404 13.2985 0.849404 14.7956Z" fill="#E2136E"/>
<path d="M8.9506 10.9573L8.02688 12.1464C8.89752 13.4152 9.7947 14.6575 10.6706 15.9422L11.5519 17.3331V17.4021C11.3342 17.3862 11.1378 17.3597 10.9573 17.3597C10.7768 17.3597 10.5432 17.3862 10.3521 17.4021C10.1132 16.9562 9.87433 16.5474 9.60358 16.144L7.22525 12.6242C7.17216 12.5711 7.04475 12.5234 7.04475 12.5818V17.4021C6.86956 17.3862 6.71561 17.3597 6.56696 17.3597C6.41832 17.3597 6.24313 17.3862 6.08917 17.4021V7.9472C6.24313 7.95782 6.4077 7.98967 6.56696 7.98967C6.72623 7.98967 6.86956 7.95782 7.04475 7.9472V12.2155C7.04475 12.3004 7.20932 12.242 7.3155 12.1305C7.52254 11.9182 7.71366 11.6899 7.89416 11.451L10.5698 7.94189C10.7131 7.95251 10.8511 7.98437 11.0051 7.98437C11.1591 7.98437 11.2758 7.95251 11.4298 7.94189L8.9506 10.9573ZM16.144 16.3404C16.144 16.8341 16.1121 17.0836 16.7545 16.919V17.1951C16.6483 17.2482 16.5422 17.2906 16.4254 17.3225C15.8626 17.434 15.3901 17.3331 15.3052 16.5952L15.2097 16.7067C14.8274 17.211 14.2328 17.503 13.6011 17.4977C12.8313 17.4977 12.1571 16.8925 12.1571 15.9581C12.1571 14.5248 13.1498 14.3337 14.1638 14.1479C15.0238 13.9833 15.3158 13.909 15.3158 13.3038C15.3158 12.3694 14.8593 11.8332 14.047 11.8332C13.479 11.8226 12.9587 12.1677 12.7517 12.6986H12.6349V11.9978C13.1233 11.5731 13.7444 11.3289 14.3921 11.3077C15.5335 11.3077 16.1546 11.9978 16.1546 13.4206L16.144 16.3404ZM15.2787 14.2646L14.8964 14.3496C14.1585 14.5142 13.049 14.6363 13.049 15.783C13.049 16.574 13.4471 16.9721 14.1107 16.9721C14.4558 16.9297 14.769 16.7545 14.992 16.489C15.0716 16.3988 15.2893 16.1811 15.2893 16.0909L15.2787 14.2646ZM18.0817 16.1758C18.3418 16.6695 18.8196 17.1102 19.3293 17.1102C19.9345 17.0783 20.4069 16.574 20.3963 15.9635C20.3963 14.2646 17.8269 15.3689 17.8269 13.171C17.8269 11.9659 18.6179 11.313 19.6 11.313C20.03 11.3023 20.46 11.4138 20.8316 11.6368C20.7255 11.9288 20.6405 12.2261 20.5715 12.5287H20.4706C20.3273 12.1146 19.9504 11.6952 19.5469 11.6952C19.0054 11.6952 18.5542 12.0615 18.5542 12.741C18.5542 14.3496 21.1236 13.4949 21.1236 15.5069C21.1236 16.8553 20.0778 17.4924 19.1222 17.4924C18.6391 17.4924 18.1719 17.3544 17.7632 17.0942C17.8587 16.7916 17.9384 16.4837 17.9914 16.1705L18.0817 16.1758ZM22.5942 7.9472C22.7375 7.95782 22.8808 7.98437 23.0295 7.98437C23.1781 7.98437 23.3055 7.95782 23.4648 7.9472V12.5287C23.847 11.7589 24.4416 11.313 25.2167 11.313C26.4802 11.313 26.9686 12.1783 26.9686 13.7656V17.4074C26.804 17.3915 26.6766 17.3703 26.5333 17.3703C26.3899 17.3703 26.2413 17.3968 26.0979 17.4074V14.0523C26.0979 12.6614 25.8166 11.9659 24.8929 11.9659C23.9107 11.9659 23.4701 12.672 23.4701 13.978V17.4074C23.3055 17.3915 23.1781 17.3703 23.0348 17.3703C22.8914 17.3703 22.7428 17.3968 22.5995 17.4074L22.5942 7.9472Z" fill="#231F20"/>
</svg>
