<svg width="193" height="313" viewBox="0 0 193 313" fill="none" xmlns="http://www.w3.org/2000/svg">
<g clip-path="url(#clip0_209_8985)">
<path d="M94.2051 164.44C109.441 164.44 121.792 152.089 121.792 136.854C121.792 121.618 109.441 109.268 94.2051 109.268C78.9696 109.268 66.6188 121.618 66.6188 136.854C66.6188 152.089 78.9696 164.44 94.2051 164.44Z" fill="#9A236F"/>
<path d="M27.1123 203.979C26.5279 203.699 26.0295 203.267 25.6697 202.728C25.3098 202.189 25.1016 201.563 25.0669 200.916L24.6656 193.319C24.6161 192.364 24.9477 191.428 25.5875 190.716C26.2273 190.005 27.1231 189.577 28.0784 189.525L91.3972 186.18C92.3526 186.131 93.2885 186.463 93.9997 187.102C94.7109 187.742 95.1392 188.638 95.1907 189.593L95.5921 197.19C95.6415 198.146 95.3099 199.081 94.6701 199.793C94.0303 200.504 93.1346 200.932 92.1794 200.984L28.8604 204.329C28.2576 204.361 27.6564 204.241 27.1123 203.979Z" fill="#9A236F"/>
<path d="M70.7616 204.128C70.1456 203.831 69.6266 203.364 69.2649 202.783C68.9032 202.202 68.7136 201.531 68.7181 200.847L68.6431 186.543C68.6465 186.069 68.7434 185.6 68.9281 185.163C69.1129 184.727 69.3819 184.331 69.7197 183.998C70.0576 183.666 70.4577 183.403 70.8972 183.225C71.3367 183.047 71.807 182.958 72.2811 182.962L101.167 185.508C101.932 185.513 102.897 186.697 103.673 187.648C103.916 187.947 104.127 188.205 104.28 188.361C104.348 188.429 104.412 188.5 104.473 188.573C105.025 189.23 105.324 190.063 105.316 190.921L105.253 198.528C105.243 199.485 104.855 200.399 104.173 201.07C103.491 201.74 102.571 202.113 101.614 202.106L72.3186 204.484C71.7797 204.482 71.2479 204.361 70.7616 204.128Z" fill="#2F2E41"/>
<path d="M88.8276 312.027H81.2199C80.2633 312.026 79.3462 311.645 78.6698 310.969C77.9933 310.292 77.6129 309.375 77.6118 308.419V243.981C77.6129 243.024 77.9934 242.107 78.6698 241.431C79.3462 240.754 80.2633 240.374 81.2199 240.373H88.8276C89.7842 240.374 90.7013 240.754 91.3777 241.431C92.0542 242.107 92.4346 243.024 92.4357 243.981V308.419C92.4346 309.375 92.0542 310.293 91.3777 310.969C90.7013 311.645 89.7842 312.026 88.8276 312.027Z" fill="#9A236F"/>
<path d="M108.894 312.027H101.287C100.33 312.026 99.4131 311.645 98.7367 310.969C98.0602 310.292 97.6798 309.375 97.6787 308.419V243.981C97.6798 243.024 98.0603 242.107 98.7367 241.431C99.4131 240.754 100.33 240.374 101.287 240.373H108.894C109.851 240.374 110.768 240.754 111.445 241.431C112.121 242.107 112.502 243.024 112.503 243.981V308.419C112.502 309.375 112.121 310.293 111.445 310.969C110.768 311.645 109.851 312.026 108.894 312.027Z" fill="#9A236F"/>
<path d="M97.8773 147.078L97.906 146.047C95.9882 145.994 94.2974 145.874 93.0269 144.946C92.6667 144.667 92.3706 144.315 92.1588 143.912C91.947 143.509 91.8244 143.066 91.7994 142.611C91.7771 142.334 91.8191 142.055 91.9222 141.796C92.0253 141.537 92.1866 141.306 92.3937 141.119C93.237 140.407 94.5941 140.638 95.5833 141.091L96.4362 141.482L94.8005 129.529L93.7792 129.669L95.1705 139.837C94.601 139.626 93.9876 139.56 93.3864 139.647C92.7851 139.733 92.2151 139.969 91.7282 140.332C91.4007 140.618 91.1437 140.976 90.9774 141.378C90.8111 141.779 90.7398 142.214 90.7693 142.648C90.7994 143.258 90.9626 143.855 91.2476 144.395C91.5325 144.936 91.9323 145.408 92.4188 145.778C94.0512 146.971 96.1727 147.031 97.8773 147.078Z" fill="#2F2E41"/>
<path d="M88.7282 130.546H83.176V131.577H88.7282V130.546Z" fill="#2F2E41"/>
<path d="M106.253 130.546H100.701V131.577H106.253V130.546Z" fill="#2F2E41"/>
<path d="M125.634 228.724L100.172 177.949H100.531C101.419 177.948 102.271 177.595 102.899 176.967C103.527 176.339 103.88 175.487 103.881 174.599V173.568C103.88 172.68 103.527 171.828 102.899 171.2C102.271 170.572 101.419 170.219 100.531 170.218H89.1909C88.3026 170.219 87.451 170.572 86.8229 171.2C86.1948 171.828 85.8415 172.68 85.8405 173.568V174.599C85.8431 175.418 86.1465 176.208 86.6932 176.819C87.2399 177.429 87.9917 177.818 88.8059 177.91L63.2705 228.752C62.0561 231.17 61.4805 233.858 61.5985 236.561C61.7164 239.265 62.524 241.893 63.9444 244.196C65.3649 246.498 67.3509 248.4 69.7135 249.718C72.0762 251.037 74.7369 251.729 77.4427 251.729H111.435C114.144 251.729 116.808 251.036 119.174 249.716C121.54 248.396 123.529 246.493 124.952 244.188C126.375 241.882 127.184 239.251 127.304 236.545C127.423 233.838 126.848 231.146 125.634 228.724Z" fill="#2F2E41"/>
<path d="M95.3966 189.441L152.831 162.576C153.698 162.172 154.69 162.128 155.59 162.454C156.489 162.78 157.222 163.449 157.628 164.316L160.851 171.207C161.256 172.073 161.3 173.065 160.974 173.965C160.648 174.864 159.978 175.597 159.112 176.004L101.677 202.868C100.81 203.273 99.8183 203.317 98.919 202.991C98.0197 202.665 97.2865 201.995 96.8803 201.129L93.6572 194.238C93.4554 193.809 93.3407 193.344 93.3197 192.871C93.2987 192.397 93.3719 191.925 93.5349 191.48C93.6623 191.127 93.8437 190.796 94.0726 190.499C94.423 190.045 94.8771 189.683 95.3966 189.441Z" fill="#9A236F"/>
<path d="M93.4272 189.275L118.714 174.203C119.576 173.789 120.566 173.734 121.469 174.05C122.371 174.366 123.111 175.027 123.527 175.888L129.904 188.699C130.11 189.127 130.23 189.592 130.256 190.067C130.282 190.542 130.213 191.017 130.055 191.466C129.896 191.914 129.65 192.326 129.332 192.679C129.013 193.032 128.628 193.319 128.198 193.522L101.186 203.957C100.479 204.297 99.0899 203.66 97.974 203.149C97.6242 202.988 97.3219 202.85 97.1154 202.777C97.0246 202.746 96.9357 202.71 96.8491 202.672C96.064 202.325 95.4285 201.709 95.0571 200.936L91.7596 194.08C91.4695 193.475 91.353 192.802 91.4232 192.136C91.4933 191.469 91.7473 190.835 92.1569 190.304C92.4941 189.866 92.9292 189.514 93.4272 189.275Z" fill="#2F2E41"/>
<path d="M72.4169 122.506C72.0478 122.505 71.6942 122.357 71.4334 122.096C71.1725 121.835 71.0255 121.482 71.0246 121.113C71.0229 121.003 71.0352 120.894 71.0612 120.787L78.2716 89.0271C78.3262 88.7879 78.4426 88.5673 78.6093 88.3872C78.7759 88.2072 78.987 88.0741 79.2212 88.0012C79.4555 87.9283 79.7048 87.9183 79.9441 87.972C80.1835 88.0257 80.4046 88.1414 80.5852 88.3074L104.49 110.443C104.669 110.61 104.802 110.821 104.875 111.056C104.948 111.29 104.958 111.539 104.904 111.778C104.85 112.017 104.734 112.238 104.568 112.419C104.402 112.599 104.192 112.733 103.958 112.807L72.836 122.443C72.7001 122.484 72.5589 122.506 72.4169 122.506Z" fill="#3F3D56"/>
<path d="M91.9688 99.2883L76.9535 96.3003L77.1898 95.2574L90.4644 97.8966L91.9688 99.2883Z" fill="white"/>
<path d="M103.792 110.241L75.0834 104.528L75.3197 103.48L102.287 108.843L103.792 110.241Z" fill="white"/>
<path d="M93.5217 115.701L91.3667 116.367L73.2184 112.756L73.4547 111.708L93.5217 115.701Z" fill="white"/>
<path d="M163.521 122.991C166.023 122.991 168.052 120.963 168.052 118.46C168.052 115.957 166.023 113.929 163.521 113.929C161.018 113.929 158.989 115.957 158.989 118.46C158.989 120.963 161.018 122.991 163.521 122.991Z" fill="#9A236F"/>
<path d="M105.262 6.47323C107.049 6.47323 108.498 5.02414 108.498 3.23661C108.498 1.44908 107.049 0 105.262 0C103.474 0 102.025 1.44908 102.025 3.23661C102.025 5.02414 103.474 6.47323 105.262 6.47323Z" fill="#FF6584"/>
<path d="M34.7034 106.808C36.4909 106.808 37.94 105.359 37.94 103.572C37.94 101.784 36.4909 100.335 34.7034 100.335C32.9159 100.335 31.4668 101.784 31.4668 103.572C31.4668 105.359 32.9159 106.808 34.7034 106.808Z" fill="#FF6584"/>
<path d="M147.985 95.8038C149.772 95.8038 151.221 94.3547 151.221 92.5672C151.221 90.7796 149.772 89.3306 147.985 89.3306C146.197 89.3306 144.748 90.7796 144.748 92.5672C144.748 94.3547 146.197 95.8038 147.985 95.8038Z" fill="#9A236F"/>
<path d="M49.5918 139.822C51.3794 139.822 52.8285 138.373 52.8285 136.585C52.8285 134.797 51.3794 133.348 49.5918 133.348C47.8043 133.348 46.3552 134.797 46.3552 136.585C46.3552 138.373 47.8043 139.822 49.5918 139.822Z" fill="#9A236F"/>
<path d="M151.869 148.884C153.656 148.884 155.105 147.435 155.105 145.648C155.105 143.86 153.656 142.411 151.869 142.411C150.081 142.411 148.632 143.86 148.632 145.648C148.632 147.435 150.081 148.884 151.869 148.884Z" fill="#E6E6E6"/>
<path d="M123.387 33.6607C125.174 33.6607 126.623 32.2116 126.623 30.4241C126.623 28.6366 125.174 27.1875 123.387 27.1875C121.599 27.1875 120.15 28.6366 120.15 30.4241C120.15 32.2116 121.599 33.6607 123.387 33.6607Z" fill="#CCCCCC"/>
<path d="M1.05343 69.2485C4.44249 69.462 7.73272 70.4756 10.6544 72.2062C13.5761 73.9369 16.046 76.3353 17.8618 79.2048C18.3707 80.0183 19.035 80.9122 18.6827 81.9136C18.56 82.2975 18.3106 82.6284 17.9755 82.8523C17.6403 83.0761 17.2391 83.1797 16.8374 83.146C16.3366 83.0382 15.8852 82.7686 15.5528 82.3788C15.2204 81.9891 15.0255 81.5008 14.9981 80.9893C14.9707 80.4777 15.1123 79.9714 15.4012 79.5484C15.69 79.1253 16.11 78.8091 16.5964 78.6484C18.947 77.6457 21.3184 79.1953 23.2331 80.4319C27.5958 83.2497 32.3943 85.798 37.6807 86.1192C42.5718 86.4162 47.8167 84.4985 50.5373 80.2569C51.0132 79.5149 49.8315 78.8292 49.3579 79.5675C46.6598 83.7741 41.2054 85.2849 36.4629 84.6347C33.6367 84.1887 30.9078 83.2622 28.3942 81.8953C27.0907 81.2189 25.8265 80.469 24.5878 79.6807C23.4091 78.8582 22.1597 78.142 20.8544 77.5404C18.6774 76.6462 15.7955 76.716 14.2749 78.7749C12.8562 80.6958 13.9526 83.8936 16.3254 84.4336C16.8459 84.5362 17.3837 84.5081 17.8907 84.3517C18.3976 84.1953 18.8578 83.9155 19.2301 83.5375C19.6023 83.1595 19.8749 82.695 20.0234 82.1857C20.172 81.6764 20.1918 81.1382 20.0812 80.6193C19.8444 79.4882 18.9927 78.3813 18.3334 77.4567C16.3525 74.6701 13.7717 72.3633 10.7811 70.7064C7.79055 69.0494 4.46633 68.0845 1.05335 67.8826C0.174757 67.8391 0.177127 69.2051 1.05343 69.2485Z" fill="#CCCCCC"/>
<path d="M192.474 110.593C190.203 109.131 188.311 107.152 186.953 104.818C185.595 102.483 184.809 99.8602 184.66 97.1634C184.622 96.4012 184.507 95.5229 185.14 94.964C185.374 94.745 185.676 94.6118 185.995 94.5862C186.315 94.5607 186.633 94.6443 186.899 94.8234C187.205 95.0924 187.414 95.4546 187.494 95.8541C187.574 96.2536 187.52 96.6683 187.341 97.0342C187.162 97.4001 186.867 97.6968 186.502 97.8786C186.138 98.0605 185.723 98.1173 185.323 98.0404C183.302 97.8256 182.256 95.8302 181.406 94.2292C179.468 90.5811 177.123 86.9513 173.576 84.6791C170.295 82.5769 165.909 81.8757 162.375 83.7669C161.757 84.0977 162.312 85.032 162.927 84.7028C166.431 82.8272 170.805 83.8922 173.847 86.1821C175.637 87.5873 177.173 89.2886 178.388 91.2122C179.031 92.1873 179.619 93.1982 180.173 94.2258C180.673 95.2539 181.263 96.2356 181.937 97.1593C183.102 98.6242 185.13 99.6928 186.985 98.8523C187.398 98.6385 187.755 98.331 188.028 97.9544C188.301 97.5778 188.482 97.1425 188.557 96.6834C188.632 96.2243 188.598 95.754 188.459 95.3102C188.319 94.8664 188.078 94.4614 187.754 94.1276C187.432 93.8546 187.048 93.6656 186.635 93.5777C186.223 93.4898 185.794 93.5058 185.389 93.624C184.984 93.7423 184.615 93.9592 184.314 94.2553C184.014 94.5514 183.791 94.9175 183.667 95.3207C183.476 96.2688 183.472 97.245 183.655 98.1947C183.951 100.898 184.849 103.5 186.283 105.81C187.718 108.12 189.653 110.079 191.945 111.542C192.538 111.913 193.066 110.963 192.474 110.593Z" fill="#CCCCCC"/>
<path d="M80.7871 20.9768C78.0916 20.807 75.4747 20.0009 73.151 18.6244C70.8272 17.2479 68.8628 15.3404 67.4186 13.0581C67.0139 12.4111 66.4855 11.7001 66.7657 10.9037C66.8633 10.5983 67.0616 10.3351 67.3282 10.1571C67.5948 9.97903 67.9139 9.89668 68.2333 9.92349C68.6316 10.0092 68.9907 10.2236 69.2551 10.5336C69.5194 10.8436 69.6745 11.232 69.6963 11.6388C69.718 12.0457 69.6054 12.4484 69.3756 12.7848C69.1459 13.1213 68.8118 13.3728 68.425 13.5006C66.5555 14.2981 64.6694 13.0657 63.1465 12.0821C59.6767 9.84098 55.8602 7.81418 51.6557 7.55878C47.7655 7.3225 43.594 8.84779 41.4302 12.2213C41.0517 12.8115 41.9916 13.3569 42.3682 12.7696C44.5142 9.4239 48.8523 8.22228 52.6242 8.7394C54.872 9.09411 57.0425 9.831 59.0416 10.9182C60.0784 11.4562 61.0838 12.0526 62.069 12.6796C63.0065 13.3337 64.0002 13.9034 65.0384 14.3818C66.7699 15.0931 69.062 15.0375 70.2714 13.4C70.5279 13.0119 70.6901 12.5692 70.745 12.1073C70.7999 11.6454 70.7459 11.177 70.5874 10.7397C70.4289 10.3023 70.1703 9.90809 69.8323 9.58854C69.4942 9.269 69.0861 9.03297 68.6406 8.89934C68.2266 8.81773 67.7988 8.84012 67.3956 8.96451C66.9924 9.0889 66.6263 9.3114 66.3303 9.61206C66.0342 9.91272 65.8174 10.2821 65.6993 10.6872C65.5811 11.0923 65.5654 11.5204 65.6534 11.933C65.9488 12.8539 66.421 13.7083 67.0435 14.4484C68.619 16.6648 70.6716 18.4994 73.0502 19.8173C75.4287 21.1351 78.0726 21.9026 80.7871 22.0632C81.4859 22.0977 81.4841 21.0113 80.7871 20.9768Z" fill="#CCCCCC"/>
<path d="M83.2526 55.3923H80.016V66.0269H83.2526V55.3923Z" fill="#CCCCCC"/>
<path d="M30.9209 47.9709L33.1703 45.7216L25.7795 38.3308L23.5302 40.5802L30.9209 47.9709Z" fill="#B3B3B3"/>
<path d="M121.923 70.3197L124.173 72.5691L131.563 65.1783L129.314 62.929L121.923 70.3197Z" fill="#B3B3B3"/>
<path d="M30.0034 162.24L32.2528 164.489L39.6436 157.098L37.3942 154.849L30.0034 162.24Z" fill="#FF6584"/>
</g>
<defs>
<clipPath id="clip0_209_8985">
<rect width="192.338" height="312.027" fill="white" transform="translate(0.395264)"/>
</clipPath>
</defs>
</svg>
