<svg xmlns="http://www.w3.org/2000/svg" width="87" height="50" viewBox="0 0 87 50">
  <g id="Credit_Card" data-name="Credit Card" transform="translate(0.193 0.354)">
    <rect id="BG" width="87" height="50" rx="4" transform="translate(-0.193 -0.354)" fill="#f85606"/>
    <g id="Icon_Credit_Card" data-name="Icon_Credit Card" transform="translate(35.596 17.441)">
      <g id="Group_329" data-name="Group 329" transform="translate(0 0)">
        <path id="Path_82" data-name="Path 82" d="M13.679,3.161l-1-1.878A2.549,2.549,0,0,0,10.455,0,2.334,2.334,0,0,0,9.265.313L4.069,3.13H2.5A2.511,2.511,0,0,0,0,5.634v5.947a2.511,2.511,0,0,0,2.5,2.5H13.147a2.511,2.511,0,0,0,2.5-2.5V5.634A2.522,2.522,0,0,0,13.679,3.161ZM10.017,1.69a.782.782,0,0,1,.438-.125.9.9,0,0,1,.814.5l.563,1.064H7.356Zm4.069,9.891a.942.942,0,0,1-.939.939H2.5a.942.942,0,0,1-.939-.939V5.634A.942.942,0,0,1,2.5,4.7H13.147a.942.942,0,0,1,.939.939Z" transform="translate(0 0)" fill="#fff"/>
        <path id="Path_83" data-name="Path 83" d="M18.608,21.565H10.783A.775.775,0,0,1,10,20.783h0A.775.775,0,0,1,10.783,20h7.825a.775.775,0,0,1,.783.783h0A.8.8,0,0,1,18.608,21.565Z" transform="translate(-6.87 -13.74)" fill="#fff"/>
      </g>
    </g>
  </g>
</svg>
