<svg width="281" height="218" viewBox="0 0 281 218" fill="none" xmlns="http://www.w3.org/2000/svg">
<g clip-path="url(#clip0_223_11043)">
<mask id="mask0_223_11043" style="mask-type:luminance" maskUnits="userSpaceOnUse" x="0" y="0" width="281" height="218">
<path d="M281 0H0V218H281V0Z" fill="white"/>
</mask>
<g mask="url(#mask0_223_11043)">
<path d="M140.505 155.952C100.576 155.952 60.6585 155.976 20.7531 156.024C17.9427 156.024 16.9495 155.292 16.5349 152.461C13.8217 133.719 10.9243 115.008 8.06271 96.282C5.45877 79.1975 2.83436 62.1319 0.189466 45.0853C-0.33102 43.1193 -0.214405 41.0373 0.522302 39.1428C1.25901 37.2483 2.57726 35.6406 4.28478 34.554C5.99558 33.4739 8.00725 32.9801 10.0195 33.1465C12.0317 33.3129 13.9365 34.1305 15.4496 35.4772C32.2916 48.2295 49.1472 60.9664 66.0165 73.6878C74.586 80.1808 81.7016 78.974 87.7012 69.9023C101.712 48.7212 115.954 27.6896 129.642 6.29189C130.729 4.37849 132.297 2.7872 134.188 1.67812C136.079 0.569033 138.227 -0.018735 140.415 -0.0260539C142.604 -0.0333727 144.755 0.540016 146.654 1.63643C148.552 2.73284 150.13 4.3136 151.23 6.21969C164.98 27.6845 179.257 48.8088 193.319 70.0673C199.181 78.9276 206.394 80.1396 214.82 73.7497C231.744 60.9354 248.68 48.1367 265.627 35.3534C267.109 34.0889 268.945 33.3202 270.88 33.154C272.815 32.9878 274.754 33.4323 276.427 34.4259C278.1 35.4194 279.425 36.9128 280.218 38.6989C281.01 40.4851 281.232 42.4755 280.852 44.3942C280.452 47.0141 280.053 49.6323 279.654 52.2488C276.183 74.941 272.712 97.6332 269.241 120.325C267.562 131.285 265.74 142.223 264.22 153.203C263.882 155.643 262.883 156.009 260.836 155.952C256.935 155.839 253.029 155.921 249.123 155.921H140.505" fill="#9A236F"/>
<path d="M140.5 176.633C180.508 176.633 220.517 176.614 260.529 176.576C263.155 176.576 264.025 177.174 263.958 179.959C263.759 187.819 263.918 195.689 263.882 203.554C264.059 205.502 263.807 207.466 263.144 209.305C262.481 211.143 261.423 212.812 260.046 214.191C258.669 215.571 257.007 216.627 255.178 217.284C253.349 217.942 251.399 218.184 249.466 217.995C176.774 217.995 104.083 217.995 31.3907 217.995C29.4559 218.176 27.5052 217.924 25.6784 217.257C23.8515 216.59 22.1938 215.524 20.8239 214.135C19.4541 212.747 18.406 211.07 17.7548 209.226C17.1035 207.381 16.8653 205.415 17.0571 203.467C17.0315 195.7 17.18 187.928 16.9854 180.166C16.9138 177.355 17.6407 176.556 20.4972 176.556C60.505 176.652 100.514 176.674 140.526 176.623" fill="#9A236F"/>
</g>
</g>
<defs>
<clipPath id="clip0_223_11043">
<rect width="281" height="218" fill="white"/>
</clipPath>
</defs>
</svg>
