<svg width="22" height="20" viewBox="0 0 22 20" fill="none" xmlns="http://www.w3.org/2000/svg">
<path d="M1 7.83993H4V19.8399H1C0.734784 19.8399 0.48043 19.7346 0.292893 19.547C0.105357 19.3595 0 19.1051 0 18.8399V8.83993C0 8.57471 0.105357 8.32036 0.292893 8.13282C0.48043 7.94529 0.734784 7.83993 1 7.83993ZM6.293 6.54693L12.693 0.146932C12.7781 0.0620385 12.891 0.0106614 13.0109 0.00221321C13.1309 -0.00623498 13.2498 0.0288115 13.346 0.100932L14.2 0.739932C14.4371 0.917652 14.6162 1.1616 14.7148 1.44102C14.8134 1.72043 14.827 2.02278 14.754 2.30993L13.6 6.83993H20C20.5304 6.83993 21.0391 7.05065 21.4142 7.42572C21.7893 7.80079 22 8.3095 22 8.83993V10.9399C22 11.2014 21.9487 11.4602 21.849 11.7019L18.755 19.2169C18.6801 19.4009 18.5522 19.5584 18.3874 19.6694C18.2227 19.7803 18.0286 19.8397 17.83 19.8399H7C6.73478 19.8399 6.48043 19.7346 6.29289 19.547C6.10536 19.3595 6 19.1051 6 18.8399V7.25393C6.00006 6.98874 6.10545 6.73442 6.293 6.54693Z" fill="#4A276D"/>
</svg>
