<svg width="60" height="36" viewBox="0 0 60 36" fill="none" xmlns="http://www.w3.org/2000/svg">
<path fill-rule="evenodd" clip-rule="evenodd" d="M29.7107 31.1677C32.9565 34.1546 37.2078 35.8088 41.6182 35.8022C51.4914 35.6877 59.4025 27.5904 59.2875 17.7172C59.1746 8.00533 51.329 0.159726 41.6171 0.0473864C37.2072 0.0402275 32.9559 1.69448 29.7107 4.6803C22.3965 11.3221 21.8519 22.6359 28.4937 29.9501C28.8792 30.3758 29.2856 30.7816 29.7107 31.1677Z" fill="#E9B040"/>
<path fill-rule="evenodd" clip-rule="evenodd" d="M57.0246 27.884C57.0235 27.5805 57.2685 27.3333 57.5719 27.3316C57.5736 27.3316 57.5752 27.3316 57.5769 27.3316C57.8842 27.3179 58.1446 27.5557 58.1584 27.863C58.159 27.8702 58.159 27.8768 58.159 27.884C58.17 28.1956 57.926 28.4567 57.6143 28.4677C57.6017 28.4682 57.589 28.4682 57.5763 28.4677C57.2685 28.4655 57.0212 28.2144 57.0235 27.9065C57.024 27.8988 57.024 27.8911 57.0246 27.884ZM57.5769 28.3449C57.8286 28.3383 58.0312 28.1356 58.0367 27.884C58.0285 27.6384 57.8225 27.4462 57.5769 27.4539C57.3412 27.4583 57.1518 27.6483 57.1468 27.884C57.1501 28.1252 57.3362 28.3245 57.5769 28.3449ZM57.5152 28.1615H57.3952V27.6395H57.6099C57.6523 27.635 57.6947 27.6466 57.73 27.6708C57.7911 27.7011 57.7911 27.732 57.7911 27.7909C57.7911 27.8498 57.7614 27.9109 57.6997 27.9109L57.8197 28.151H57.665L57.6039 27.9335H57.5125V27.841H57.6325C57.6622 27.841 57.6622 27.8096 57.6622 27.7799C57.6622 27.7501 57.6622 27.7485 57.6325 27.7188H57.5125L57.5152 28.1615Z" fill="#E9B040"/>
<path fill-rule="evenodd" clip-rule="evenodd" d="M35.4482 16.0378C35.3871 15.3929 35.2643 14.7794 35.1409 14.1346H24.2765C24.4076 13.5024 24.5717 12.8768 24.7677 12.2617H34.62C34.4063 11.6158 34.1607 10.9814 33.8843 10.3586H25.5359C25.8432 9.70874 26.1802 9.07435 26.547 8.45538H32.8396C32.4349 7.80007 31.9833 7.17449 31.4888 6.58361H27.8989C28.4545 5.90516 29.0597 5.26912 29.7096 4.68044C22.3684 -1.88041 11.0981 -1.24878 4.53611 6.0924C-2.02585 13.4336 -1.39366 24.7033 5.94751 31.2653C9.20151 34.1735 13.4087 35.7875 17.7729 35.8013C22.1927 35.8084 26.4545 34.1542 29.7118 31.1667C30.3516 30.5885 30.9469 29.9624 31.4921 29.2938H27.8989C27.4137 28.6848 26.9633 28.0493 26.5481 27.3907H32.8407C33.2361 26.7838 33.5853 26.1478 33.8843 25.4875H25.5359C25.2485 24.8768 24.9924 24.2512 24.7688 23.6146H34.6211C34.8276 22.9896 35.0011 22.3547 35.1421 21.7115C35.277 21.0826 35.3794 20.4476 35.4493 19.8083C35.5116 19.186 35.5424 18.561 35.5418 17.9354C35.5418 17.2917 35.5105 16.6474 35.4493 16.0339L35.4482 16.0378Z" fill="#CC2131"/>
<path fill-rule="evenodd" clip-rule="evenodd" d="M57.0245 22.0836C57.0107 21.7763 57.2486 21.5158 57.5559 21.502C57.5631 21.5015 57.5697 21.5015 57.5768 21.5015C57.9023 21.4806 58.1837 21.7273 58.2046 22.0527C58.2255 22.3782 57.9788 22.6596 57.6534 22.6805C57.3279 22.7014 57.0465 22.4547 57.0256 22.1293C57.0245 22.1138 57.0239 22.099 57.0245 22.0836ZM57.5768 22.5136C57.8142 22.5136 58.0069 22.3215 58.0069 22.0836C58.0069 21.8457 57.8147 21.6535 57.5768 21.6535C57.3395 21.6535 57.1467 21.8457 57.1467 22.0836C57.1478 22.3203 57.34 22.5114 57.5768 22.512V22.5136ZM57.5152 22.3297H57.3951V21.8385H57.7327C57.7938 21.8699 57.7938 21.931 57.7938 21.9921C57.7844 22.0445 57.7503 22.0891 57.7024 22.1122L57.8224 22.327H57.6649L57.6038 22.143H57.5124V22.0505H57.5735C57.6033 22.0505 57.6347 22.0505 57.6347 22.0191C57.6644 22.0191 57.6644 21.9888 57.6644 21.958C57.6644 21.9415 57.6512 21.9283 57.6347 21.9277C57.6347 21.8963 57.6033 21.9277 57.5735 21.9277H57.5124L57.5152 22.3297Z" fill="white"/>
<path fill-rule="evenodd" clip-rule="evenodd" d="M23.6641 23.0957C23.196 23.2372 22.712 23.3182 22.2235 23.3358C21.3028 23.3358 20.7504 22.7521 20.7504 21.7102C20.7571 21.4833 20.7774 21.2575 20.8116 21.0328L20.9316 20.3268L21.0241 19.7431L21.8524 14.7104H23.6939L23.4763 15.8151H24.6432L24.3673 17.6566H23.2015L22.7103 20.6584C22.6889 20.7591 22.6784 20.8627 22.6789 20.9656C22.6789 21.3643 22.8629 21.518 23.3238 21.518C23.5198 21.5147 23.7148 21.4943 23.9075 21.4569L23.6674 23.0825L23.6641 23.0957ZM29.6181 23.0346C28.9793 23.2163 28.3185 23.3094 27.6538 23.3105C26.037 23.5076 24.5672 22.3567 24.3701 20.7399C24.3415 20.5031 24.3415 20.2635 24.3701 20.0267C24.3701 17.4793 25.7821 15.6372 27.7463 15.6372C29.1016 15.5656 30.2586 16.6064 30.3302 17.9617C30.3362 18.0768 30.334 18.1924 30.3241 18.3069C30.318 18.9171 30.2459 19.5245 30.1093 20.1187H26.2672C26.2457 20.1969 26.2353 20.2778 26.2358 20.3588C26.2358 21.2184 26.8195 21.6468 27.9237 21.6468C28.6148 21.6446 29.2965 21.4871 29.9193 21.187L29.6181 23.0346ZM28.4821 18.6462V18.2778C28.5404 17.8124 28.2106 17.3884 27.7458 17.33C27.6847 17.3223 27.623 17.3212 27.5613 17.3273C26.9479 17.3273 26.5178 17.7871 26.3333 18.6478H28.481L28.4821 18.6462ZM8.93276 23.1882H7.02959L8.13427 16.2248L5.64793 23.1882H4.32738L4.17374 16.2523L3.00684 23.1882H1.13672L2.64614 14.1344H5.43371L5.49484 19.7211L7.36661 14.1344H10.4367L8.93276 23.1882ZM13.5668 19.9045C13.4456 19.8808 13.3217 19.8703 13.1984 19.8731C12.0937 19.8731 11.5414 20.3032 11.5414 20.9778C11.5017 21.3594 11.7787 21.7014 12.1603 21.7416C12.189 21.7443 12.2181 21.746 12.2473 21.7454C13.1681 21.7454 13.5354 20.9783 13.5679 19.9039L13.5668 19.9045ZM15.1015 23.1882H13.4445L13.4759 22.4211C13.0034 23.0522 12.2347 23.3898 11.4505 23.311C10.4251 23.2378 9.6536 22.3473 9.72685 21.3219C9.72795 21.3098 9.7285 21.2977 9.7296 21.2856C9.73346 20.9629 9.78522 20.6424 9.88324 20.3346C10.1894 19.199 11.3238 18.4931 13.0745 18.4617C13.292 18.4617 13.6268 18.4617 13.9341 18.4931C13.9792 18.3334 14.0002 18.1676 13.9952 18.0019C13.9952 17.5106 13.5976 17.357 12.7072 17.357C12.1658 17.3521 11.6273 17.433 11.1113 17.5971L10.8354 17.6582L10.7153 17.6885L10.9912 16.0315C11.7121 15.7815 12.4676 15.6471 13.2303 15.6339C14.8873 15.6339 15.7778 16.401 15.7778 17.813C15.797 18.2954 15.7662 18.7778 15.6853 19.2536L15.2568 21.8946L15.1957 22.3556L15.1643 22.724L15.1329 22.9641L15.1015 23.1777V23.1882ZM38.8867 15.8839C39.4908 15.9043 40.0811 16.0728 40.6048 16.3751L40.9424 14.4108C40.7827 14.3398 40.6186 14.2781 40.4512 14.2269L39.6841 14.0094C39.3917 13.9433 39.0926 13.9125 38.7931 13.9169C38.0766 13.8398 37.353 13.9675 36.7065 14.2853C36.2869 14.5617 35.9047 14.8921 35.571 15.2672L35.3309 15.206L33.3666 16.5866L33.4591 15.8195H31.4299L30.2294 23.1855H32.1634L32.8694 19.2233C32.8694 19.2233 33.1453 18.6698 33.2681 18.4876C33.5109 18.1445 33.9256 17.9666 34.3413 18.0266H34.495C34.4322 18.4958 34.4025 18.9689 34.4074 19.4419C34.4074 21.8357 35.7583 23.3402 37.8448 23.3402C38.4159 23.338 38.9842 23.2576 39.5326 23.1001L39.8653 21.0025C39.3724 21.2983 38.814 21.4673 38.2396 21.4937C37.1041 21.4937 36.429 20.6341 36.429 19.2844C36.429 17.2887 37.44 15.8784 38.8856 15.8784L38.8867 15.8839ZM55.1826 14.1344L54.7525 16.7122C54.4055 16.0695 53.7337 15.6686 53.0029 15.6686C51.9016 15.7011 50.9142 16.3553 50.4555 17.3565V17.3262L49.2297 16.5888L49.3497 15.8217H47.2956L46.1298 23.1877H48.0292L48.674 19.2255C48.674 19.2255 49.1652 18.672 49.2875 18.4898C49.4956 18.2216 49.8084 18.0536 50.1471 18.0288C49.9142 18.7315 49.8002 19.4678 49.8095 20.2079C49.8095 22.0494 50.7606 23.278 52.1725 23.278C52.862 23.2917 53.5195 22.9861 53.9529 22.4497L53.8615 23.1855H55.6721L57.1452 14.1316H55.182L55.1826 14.1344ZM52.8201 21.4392C52.1753 21.4392 51.8382 20.948 51.8382 19.9986C51.8382 18.5581 52.4517 17.5123 53.3416 17.5123C54.0162 17.5123 54.3527 18.0343 54.3527 18.9529C54.3527 20.426 53.7392 21.4392 52.8185 21.4392H52.8201ZM43.9475 19.9045C43.8263 19.8808 43.7024 19.8703 43.5791 19.8731C42.4733 19.8731 41.921 20.3032 41.921 20.9778C41.8813 21.3594 42.1583 21.7014 42.5399 21.7416C42.5686 21.7443 42.5978 21.746 42.6269 21.7454C43.551 21.7465 43.92 20.9778 43.9475 19.9045ZM45.4817 23.1882H43.7971L43.8583 22.4211C43.3858 23.0522 42.617 23.3898 41.8329 23.311C40.802 23.2664 40.0024 22.3947 40.0475 21.3638C40.0486 21.3379 40.0503 21.3115 40.0525 21.2856C40.0525 19.5361 41.373 18.4617 43.4585 18.4617C43.7349 18.4578 44.0114 18.4683 44.2867 18.4931C44.339 18.3345 44.3704 18.1693 44.3792 18.0019C44.3792 17.5106 43.9816 17.357 43.0587 17.357C42.5179 17.3548 41.9793 17.4358 41.4628 17.5971L41.2227 17.6582L41.1026 17.6885L41.3785 16.0315C42.0994 15.7815 42.8549 15.6471 43.6176 15.6339C45.2746 15.6339 46.1387 16.401 46.1387 17.813C46.1745 18.2954 46.1436 18.78 46.0472 19.2536L45.6497 21.8946L45.5885 22.3556L45.5274 22.724L45.4971 22.9641V23.1777L45.4817 23.1882ZM19.1221 17.3867C19.6045 17.3884 20.0863 17.4286 20.5627 17.5068L20.8386 15.7887C20.2862 15.7275 19.5489 15.635 19.1193 15.635C16.9717 15.635 16.2657 16.8008 16.2657 18.1561C16.2503 19.074 16.8345 19.8951 17.7063 20.1815C18.4734 20.5499 18.5962 20.6116 18.5962 20.9486C18.5962 21.4084 18.1986 21.6843 17.4607 21.6843C16.8643 21.6843 16.2723 21.5802 15.7111 21.377L15.4936 23.0649L15.5239 23.0962L15.8923 23.1574C16.0542 23.1965 16.2183 23.2268 16.3835 23.2488C16.8433 23.2802 17.2431 23.3099 17.4882 23.3099C19.6359 23.3099 20.5269 22.4817 20.5269 20.8533C20.555 19.9248 19.9685 19.0884 19.0863 18.7976C18.2581 18.4292 18.1655 18.3675 18.1655 18.0305C18.1655 17.6929 18.5339 17.3856 19.1166 17.3856L19.1221 17.3867Z" fill="#1B3771"/>
<path fill-rule="evenodd" clip-rule="evenodd" d="M41.4634 13.8272L41.1247 15.7915C40.601 15.4892 40.0107 15.3207 39.4066 15.3003C37.966 15.3003 36.95 16.7123 36.95 18.7063C36.95 20.0869 37.6245 20.9157 38.7606 20.9157C39.3306 20.8876 39.8862 20.7301 40.3862 20.4558L40.0487 22.5115C39.5007 22.679 38.933 22.7715 38.3608 22.7874C36.2743 22.7874 34.9846 21.283 34.9846 18.8589C34.9846 15.6362 36.7649 13.3647 39.3069 13.3647C39.6059 13.3603 39.9049 13.3911 40.1968 13.4572L40.9639 13.6411C41.204 13.7336 41.2712 13.7612 41.4551 13.825L41.4634 13.8272ZM35.2671 15.1781H35.0831C34.4394 15.1781 34.0721 15.4854 33.4872 16.3786L33.6712 15.2431H31.9184L30.7179 22.609H32.6519C33.3578 18.0973 33.5418 17.3263 34.4625 17.3263H34.5826C34.7235 16.5884 34.9713 15.8747 35.3183 15.2084L35.2571 15.1781H35.2671ZM24.1565 22.5126C23.7143 22.6734 23.2467 22.7549 22.7759 22.7527C21.9956 22.8254 21.3039 22.2516 21.2318 21.4707C21.2213 21.3562 21.2246 21.2406 21.2417 21.1271C21.2483 20.9113 21.2687 20.6959 21.3028 20.4823L21.4229 19.7466L21.5154 19.1645L22.3436 14.1301H24.2479L24.0303 15.2348H25.0122L24.7721 17.0454H23.7913L23.2605 20.1216C23.2363 20.2223 23.2258 20.3253 23.2291 20.4289C23.2291 20.7973 23.413 20.9509 23.8739 20.9509C24.0502 20.9669 24.2275 20.9459 24.3949 20.8898L24.1548 22.5154L24.1565 22.5126ZM16.7597 17.5708C16.7475 18.4948 17.328 19.3231 18.2002 19.6276C18.9987 19.996 19.121 20.1188 19.121 20.4261C19.121 20.887 18.7834 21.1007 18.0163 21.1007C17.4331 21.0968 16.8538 21.0032 16.2982 20.8248L16.0223 22.5126L16.1148 22.544L16.4524 22.6052C16.6225 22.6481 16.7977 22.669 16.9733 22.6663C17.3192 22.7125 17.6677 22.7329 18.0169 22.7274C20.0423 22.7274 20.9944 21.9603 20.9944 20.2708C21.0544 19.3605 20.5032 18.5207 19.6436 18.214C18.8154 17.8467 18.7217 17.7553 18.7217 17.4183C18.7217 17.0207 19.0593 16.8345 19.6728 16.8345C20.1343 16.8389 20.5952 16.8698 21.0533 16.927L21.3292 15.2392C20.7714 15.145 20.2069 15.0938 19.6414 15.0856C17.4932 15.0856 16.7244 16.2211 16.7597 17.5708ZM56.1672 22.6035H54.3565L54.4491 21.8975C54.0036 22.4152 53.351 22.7076 52.6687 22.696C51.2567 22.696 50.336 21.4955 50.336 19.6584C50.336 17.2018 51.7766 15.1153 53.4661 15.1153C54.2112 15.1197 54.9039 15.4997 55.3076 16.1264L55.7377 13.5486H57.6408L56.1677 22.6024L56.1672 22.6035ZM53.3433 20.8854C54.2343 20.8854 54.8477 19.8418 54.8477 18.399C54.8477 17.448 54.5091 16.9584 53.8367 16.9584C52.9771 16.9584 52.3333 17.9695 52.3333 19.415C52.3333 20.3969 52.6703 20.8881 53.3444 20.8881L53.3433 20.8854ZM30.0515 22.4466C29.4072 22.6558 28.7332 22.7593 28.0558 22.7538C26.4534 22.9526 24.9935 21.8144 24.7952 20.2119C24.7633 19.9547 24.7661 19.6948 24.8024 19.4387C24.8024 16.9177 26.2144 15.0503 28.1484 15.0503C29.508 14.9672 30.6771 16.0019 30.7603 17.361C30.7674 17.4805 30.7663 17.6005 30.7559 17.72C30.7531 18.3418 30.6727 18.9602 30.5158 19.5615H26.7012C26.6775 19.6315 26.667 19.7053 26.6698 19.779C26.6698 20.6387 27.2535 21.0671 28.3576 21.0671C29.0504 21.0798 29.736 20.9212 30.3533 20.6062L30.046 22.4477L30.0515 22.4466ZM28.9766 18.0582V17.6897C29.035 17.2244 28.7051 16.8004 28.2403 16.742C28.1792 16.7343 28.1175 16.7332 28.0558 16.7393C27.4424 16.7393 27.0123 17.2002 26.8278 18.0598H28.9755L28.9766 18.0582ZM9.42234 22.6063H7.51917L8.62384 15.6429L6.1386 22.6063H4.81916L4.66552 15.7001L3.49972 22.6063H1.71936L3.22493 13.5525H5.98662L6.07803 19.1689L7.91952 13.5525H10.9268L9.42509 22.6063H9.42234ZM14.1791 19.3225C13.9952 19.3225 13.9033 19.2922 13.7491 19.2922C12.6747 19.2922 12.1234 19.6898 12.1234 20.4278C12.0739 20.7818 12.3206 21.1089 12.6747 21.1585C12.7154 21.164 12.7567 21.1662 12.798 21.164C13.5971 21.164 14.1494 20.4283 14.1791 19.3225ZM15.5911 22.6063H13.9952L14.0255 21.8392C13.5365 22.4493 12.7804 22.7819 12.0001 22.7302C11.0155 22.7186 10.2269 21.9113 10.2385 20.9267C10.239 20.8628 10.2434 20.7984 10.2511 20.735C10.2511 18.9244 11.4791 17.8814 13.6274 17.8814C13.8449 17.8814 14.1186 17.9128 14.4259 17.9425C14.4694 17.7933 14.4897 17.638 14.487 17.4827C14.487 16.9915 14.1494 16.8081 13.259 16.8081C12.7215 16.8015 12.1851 16.8632 11.6631 16.992L11.3872 17.0845L11.2032 17.1159L11.4791 15.4589C12.2231 15.2205 12.999 15.096 13.7805 15.0905C15.4375 15.0905 16.3279 15.8262 16.3279 17.2382C16.3158 17.7327 16.2646 18.225 16.1743 18.7113L15.742 21.3226L15.6809 21.7824L15.6495 22.1508L15.6181 22.4267L15.5878 22.6107L15.5911 22.6063ZM44.5632 19.3225C44.3456 19.3225 44.2559 19.2922 44.1331 19.2922C43.0284 19.2922 42.475 19.6898 42.475 20.4278C42.4381 20.7962 42.7063 21.1244 43.0741 21.1613C43.1094 21.1646 43.1452 21.1657 43.1809 21.1635C43.9481 21.1635 44.5318 20.4278 44.5615 19.322L44.5632 19.3225ZM45.9751 22.6063H44.3792L44.4095 21.8392C43.9205 22.4493 43.1644 22.7825 42.3841 22.7302C41.3995 22.7186 40.6109 21.9113 40.6225 20.9267C40.623 20.8628 40.6274 20.7984 40.6351 20.735C40.6351 18.9244 41.8632 17.8814 44.0114 17.8814C44.2289 17.8814 44.5026 17.9128 44.7785 17.9425C44.828 17.7927 44.86 17.6374 44.8721 17.4805C44.8721 16.9893 44.5334 16.8059 43.6441 16.8059C43.0967 16.7993 42.5504 16.861 42.0185 16.9898L41.7784 17.0823L41.5944 17.1137L41.8703 15.4567C42.6143 15.2183 43.3902 15.0938 44.1716 15.0883C45.8286 15.0883 46.6927 15.824 46.6927 17.236C46.6971 17.731 46.6453 18.2256 46.539 18.7091L46.131 21.3226L46.0698 21.7824L46.0087 22.1508L45.9784 22.4267V22.6107L45.9751 22.6063ZM51.1306 15.1792H50.9467C50.303 15.1792 49.9356 15.4865 49.3508 16.3797L49.5347 15.2442H47.7852L46.6194 22.6101H48.5209C49.2269 18.0984 49.4119 17.3274 50.3316 17.3274H50.4516C50.5926 16.5895 50.8404 15.8758 51.1874 15.2095L51.1262 15.1792H51.1306Z" fill="white"/>
</svg>
