<svg id="Component_39_1" data-name="Component 39 – 1" xmlns="http://www.w3.org/2000/svg" xmlns:xlink="http://www.w3.org/1999/xlink" width="87" height="50" viewBox="0 0 87 50">
  <defs>
    <clipPath id="clip-path">
      <rect id="Rectangle_4356" data-name="Rectangle 4356" width="25.719" height="16.192" fill="none"/>
    </clipPath>
    <clipPath id="clip-path-2">
      <rect id="Rectangle_4357" data-name="Rectangle 4357" width="16.192" height="16.192" fill="none"/>
    </clipPath>
    <clipPath id="clip-path-3">
      <rect id="Rectangle_4358" data-name="Rectangle 4358" width="16.64" height="16.192" fill="none"/>
    </clipPath>
  </defs>
  <g id="PayPal">
    <g id="BG" fill="none" stroke="#ebebeb" stroke-width="0.5">
      <rect width="87" height="50" rx="4" stroke="none"/>
      <rect x="0.25" y="0.25" width="86.5" height="49.5" rx="3.75" fill="none"/>
    </g>
  </g>
  <g id="Group_8454" data-name="Group 8454" transform="translate(55 16.978)">
    <path id="Path_4113" data-name="Path 4113" d="M381.01,0l-10.1,4.2,2.734,1.433,5-3.533-3.8,3.8.267,2.133.7-1.466,2.167,2.767Z" transform="translate(-359.529 0)" fill="#8c3494"/>
    <g id="Group_8453" data-name="Group 8453" transform="translate(0 0)">
      <g id="Group_8452" data-name="Group 8452" clip-path="url(#clip-path)">
        <path id="Path_4114" data-name="Path 4114" d="M312.852,285.77h-4a2.777,2.777,0,0,0-.033,5.5h4.034v-4a1.262,1.262,0,0,1,.633,2.333c.2.234,1,1.1,1,1.1a2.752,2.752,0,0,0-1.634-4.933m-1.466,4h-2.233a1.255,1.255,0,0,1-.134-2.5h2.367Z" transform="translate(-297.038 -277.003)" fill="#8c3494"/>
        <path id="Path_4115" data-name="Path 4115" d="M632.272,205.71H630.8l-.633,1.467h1.867a.283.283,0,1,1,0,.566h-3.233v-2.533h4.967v-1.5h-.733a2.717,2.717,0,0,0-4.9-1.5c.192.158,1.1.967,1.1.967a1.268,1.268,0,0,1,2.333.533h-4.234v5.5h4.767a1.708,1.708,0,0,0,1.7-1.5,1.808,1.808,0,0,0-1.533-2" transform="translate(-608.091 -194.943)" fill="#8c3494" fill-rule="evenodd"/>
        <path id="Path_4116" data-name="Path 4116" d="M236.076,285.77h-1.934a5.032,5.032,0,0,0,.433,6.067s.917-.783,1.1-.933a3.692,3.692,0,0,1,.4-5.134" transform="translate(-226.163 -277.003)" fill="#8c3494" fill-rule="evenodd"/>
        <path id="Path_4117" data-name="Path 4117" d="M86.151,446.913A1.212,1.212,0,1,1,84.94,445.7a1.212,1.212,0,0,1,1.212,1.212" transform="translate(-81.159 -432.026)" fill="#8c3494" fill-rule="evenodd"/>
        <path id="Path_4118" data-name="Path 4118" d="M2.413,285.77a2.777,2.777,0,0,0-.033,5.5H2.4a1.511,1.511,0,0,1,2.756,0H6.413v-5.5h-4m2.534,4H2.714a1.255,1.255,0,0,1-.133-2.5H4.948v2.5Z" transform="translate(0 -277.003)" fill="#8c3494" fill-rule="evenodd"/>
        <path id="Path_4119" data-name="Path 4119" d="M82.185,201.786a.69.69,0,0,0-.067-1.316h-1.3v1.917h.533v-.6l.6.6h.834Zm-.064-.677a.127.127,0,0,1-.126.126h-.638v-.267H82a.127.127,0,0,1,.126.126Z" transform="translate(-78.338 -194.32)" fill="#8c3494" fill-rule="evenodd"/>
        <path id="Path_4120" data-name="Path 4120" d="M144.5,199.48a.971.971,0,1,0,.971.971.971.971,0,0,0-.971-.971m0,1.4a.427.427,0,1,1,.427-.427.427.427,0,0,1-.427.427" transform="translate(-139.125 -193.36)" fill="#8c3494" fill-rule="evenodd"/>
        <path id="Path_4121" data-name="Path 4121" d="M325.67,199.683h.873v-.563H325.8a.978.978,0,1,0,0,1.949h.739v-.563h-.873a.4.4,0,0,1-.316-.156h1.189v-.511h-1.189a.4.4,0,0,1,.316-.156" transform="translate(-314.785 -193.011)" fill="#8c3494" fill-rule="evenodd"/>
        <path id="Path_4122" data-name="Path 4122" d="M211.029,200.486a.4.4,0,0,1-.4-.4v-.022a.4.4,0,0,1,.4-.4h.83V199.1h-.744a.978.978,0,1,0,0,1.949h.744v-.563Z" transform="translate(-203.614 -192.992)" fill="#8c3494" fill-rule="evenodd"/>
        <path id="Path_4123" data-name="Path 4123" d="M389.9,200.34h-1.881v.5h.689v1.377h.5v-1.377h.688Z" transform="translate(-376.114 -194.194)" fill="#8c3494" fill-rule="evenodd"/>
        <path id="Path_4124" data-name="Path 4124" d="M276.587,201.273l.926-.933h-.75l-.521.525v-.525h-.5v1.881h.5v-.539l.535.539h.749Z" transform="translate(-267.279 -194.194)" fill="#8c3494"/>
        <path id="Path_4125" data-name="Path 4125" d="M536.01,490.816a.361.361,0,0,0-.219.156.428.428,0,0,0-.091.254.37.37,0,0,0,.032.15c.027.062.064.092.11.092a.177.177,0,0,0,.091-.038l.052.14a.264.264,0,0,1-.138.042.274.274,0,0,1-.175-.068.369.369,0,0,1-.092-.15.465.465,0,0,1-.022-.164v-.051a.631.631,0,0,1,.182-.385,1.492,1.492,0,0,1,.13-.125h.191v.139a.262.262,0,0,1-.05.007" transform="translate(-519.127 -475.616)" fill="#8c3494"/>
        <path id="Path_4126" data-name="Path 4126" d="M548.979,490.841v.792h-.158v-.1a.228.228,0,0,0-.08-.136.931.931,0,0,0-.127-.109.278.278,0,0,0-.161-.051.134.134,0,0,0-.129.076.04.04,0,0,0-.005.021.071.071,0,0,0,.031.057.1.1,0,0,0,.063.025.493.493,0,0,0,.12-.037l.047.144a.4.4,0,0,1-.177.054.255.255,0,0,1-.145-.044.26.26,0,0,1-.1-.117.192.192,0,0,1-.013-.077.228.228,0,0,1,.111-.2.3.3,0,0,1,.165-.051h.015a.166.166,0,0,0-.044-.093.113.113,0,0,0-.082-.052h-.175v-.1h-.07V490.7h1.019v.139h-.108Zm-.158,0h-.372a.325.325,0,0,1,.164.268.6.6,0,0,1,.208.156Z" transform="translate(-531.253 -475.645)" fill="#8c3494"/>
        <path id="Path_4127" data-name="Path 4127" d="M579.1,490.9v.792h-.158V490.9h-.117v-.139h.381v.139Z" transform="translate(-561.07 -475.703)" fill="#8c3494"/>
        <path id="Path_4128" data-name="Path 4128" d="M590.142,490.9h-.714v-.139h.987v.139h-.109v.792h-.14q-.02-.061-.206-.189a.979.979,0,0,0-.209-.1.7.7,0,0,0-.226-.052l-.042-.157a1.774,1.774,0,0,1,.307-.152c.072-.032.189-.078.352-.139m.009.171c-.03.01-.061.021-.095.035l-.271.118-.03.013a1.333,1.333,0,0,1,.359.194l.037.028Z" transform="translate(-571.344 -475.703)" fill="#8c3494"/>
        <path id="Path_4129" data-name="Path 4129" d="M619.424,490.9v.792h-.158V490.9h-.117v-.139h.381v.139Z" transform="translate(-600.153 -475.703)" fill="#8c3494"/>
        <path id="Path_4130" data-name="Path 4130" d="M629.738,481.351v-.139h.467a.1.1,0,0,0,0-.012.137.137,0,0,0-.1-.143.118.118,0,0,0-.03,0,.251.251,0,0,0-.063.01l-.06.015a.176.176,0,0,0-.07.025.548.548,0,0,1-.089.048l-.051-.118a.86.86,0,0,1,.239-.107.423.423,0,0,1,.118-.018.278.278,0,0,1,.133.042.29.29,0,0,1,.131.26h.091v.139Zm.55.924a2.067,2.067,0,0,0-.2-.163.832.832,0,0,0-.174-.08A.639.639,0,0,0,629.8,482l0-.185.061,0,.062,0a.46.46,0,0,0,.175-.028c.086-.036.128-.078.128-.127a.106.106,0,0,0-.049-.089c-.031-.019-.064-.037-.1-.053a.063.063,0,0,0-.027-.007.168.168,0,0,0-.063.014c-.028.013-.041.028-.039.044.006.041.049.058.129.052l-.086.131a.165.165,0,0,1-.106-.033.19.19,0,0,1-.1-.161.163.163,0,0,1,.1-.148.379.379,0,0,1,.185-.044.2.2,0,0,1,.078.014l.067.033a.266.266,0,0,1,.162.25.233.233,0,0,1-.1.194.512.512,0,0,1-.217.08c.028.014.069.036.121.067a2.356,2.356,0,0,1,.217.182Z" transform="translate(-610.417 -466.156)" fill="#8c3494"/>
        <path id="Path_4131" data-name="Path 4131" d="M651.882,490.909v.792h-.158v-.314a.139.139,0,0,0-.036-.085.1.1,0,0,0-.076-.043.091.091,0,0,0-.07.046.173.173,0,0,0-.034.1h-.171a.191.191,0,0,0-.034-.114.094.094,0,0,0-.078-.048.115.115,0,0,0-.071.026.088.088,0,0,0-.037.061l-.005.041v.016c0,.081.05.122.149.122a.542.542,0,0,0,.08-.01l-.056.16-.059.006a.3.3,0,0,1-.2-.082.229.229,0,0,1-.061-.1.316.316,0,0,1-.022-.112.285.285,0,0,1,.079-.208.278.278,0,0,1,.207-.079.224.224,0,0,0,.389,0,.153.153,0,0,1,.107.051v-.234h-.854v-.139h1.1v.139h-.09Z" transform="translate(-630.899 -475.713)" fill="#8c3494"/>
        <path id="Path_4132" data-name="Path 4132" d="M700.082,490.9h-.714v-.139h.987v.139h-.11v.792h-.14q-.02-.061-.206-.189a.98.98,0,0,0-.209-.1.7.7,0,0,0-.226-.052l-.042-.157a1.768,1.768,0,0,1,.306-.152c.072-.032.19-.078.354-.139m.009.171c-.03.01-.061.021-.095.035l-.271.118-.03.013a1.334,1.334,0,0,1,.359.194l.037.028Z" transform="translate(-677.911 -475.703)" fill="#8c3494"/>
        <path id="Path_4133" data-name="Path 4133" d="M729.642,490.87a.321.321,0,0,0-.075.172,1.564,1.564,0,0,0,.077.251.569.569,0,0,1,.04.183.2.2,0,0,1-.155.193.72.72,0,0,1-.168.03l.021-.137c.093-.019.141-.052.141-.1a.563.563,0,0,0-.058-.2.562.562,0,0,1-.058-.2.417.417,0,0,1,.068-.2h-.165v-.139h.442v.139h-.108Z" transform="translate(-706.933 -475.674)" fill="#8c3494"/>
        <path id="Path_4134" data-name="Path 4134" d="M742.545,490.9v.792h-.159V490.9h-.117v-.139h.381v.139Z" transform="translate(-719.495 -475.703)" fill="#8c3494"/>
        <path id="Path_4135" data-name="Path 4135" d="M755.4,492.05a.236.236,0,0,1-.179-.07.249.249,0,0,1-.067-.18.23.23,0,0,1,.069-.17.234.234,0,0,1,.172-.069.209.209,0,0,1,.2.14.287.287,0,0,1,.027.117.238.238,0,0,1-.058.169.211.211,0,0,1-.165.064m.174.51a2.58,2.58,0,0,0-.409-.3l0-.219a2.538,2.538,0,0,1,.542.472v.163Zm-.14-.832a.067.067,0,0,0-.048-.013c-.06.01-.09.04-.09.089a.1.1,0,0,0,.03.07.09.09,0,0,0,.067.032l.022,0a.083.083,0,0,0,.068-.082.108.108,0,0,0-.049-.092" transform="translate(-731.991 -476.479)" fill="#8c3494"/>
        <path id="Path_4136" data-name="Path 4136" d="M772.1,477.649a.925.925,0,0,0-.453-.174.354.354,0,0,0-.306.132.246.246,0,0,0-.037.135h.111v.139H771.3v.792h-.161v-.792h-.106v-.139h.106a.385.385,0,0,1,.111-.273.484.484,0,0,1,.288-.129l.071-.009h.034a.719.719,0,0,1,.288.063,2.791,2.791,0,0,1,.254.145Z" transform="translate(-747.382 -462.685)" fill="#8c3494"/>
        <path id="Path_4137" data-name="Path 4137" d="M780.5,490.88v.005a.494.494,0,0,1,.206.063.25.25,0,0,1,.152.224.215.215,0,0,1-.051.143.24.24,0,0,1-.132.079.316.316,0,0,1-.139.006v-.15a.369.369,0,0,0,.05,0c.079,0,.119-.029.119-.086s-.069-.111-.206-.129v.632h-.14a.429.429,0,0,0-.068-.1c-.008-.009-.028-.035-.061-.079a.313.313,0,0,0-.056-.054.317.317,0,0,1-.056-.054.082.082,0,0,0-.037-.021.551.551,0,0,0-.167-.037l-.042-.157c.035-.025.114-.072.236-.141.009-.007.047-.029.112-.066l.118-.069v-.012h-.5v-.139h1.087v.139Zm-.158.183c-.026.019-.065.046-.118.079a.171.171,0,0,0-.047.034c-.018.017-.034.033-.05.047.017.015.044.036.081.064s.079.088.133.146v-.37Z" transform="translate(-755.912 -475.684)" fill="#8c3494"/>
        <path id="Path_4138" data-name="Path 4138" d="M815.284,492.05a.236.236,0,0,1-.179-.07.249.249,0,0,1-.067-.18.23.23,0,0,1,.069-.17.234.234,0,0,1,.172-.069.209.209,0,0,1,.2.14.286.286,0,0,1,.027.117.238.238,0,0,1-.058.169.211.211,0,0,1-.165.064m.173.51a2.582,2.582,0,0,0-.409-.3l0-.219a2.539,2.539,0,0,1,.542.472v.163Zm-.14-.832a.067.067,0,0,0-.048-.013c-.06.01-.09.04-.09.089a.1.1,0,0,0,.03.07.09.09,0,0,0,.067.032l.022,0a.083.083,0,0,0,.068-.082.109.109,0,0,0-.049-.092" transform="translate(-790.032 -476.479)" fill="#8c3494"/>
        <path id="Path_4139" data-name="Path 4139" d="M252.529,520.033l.3.1.118-.1-.295-.1Z" transform="translate(-244.781 -503.978)" fill="#8c3494"/>
        <path id="Path_4140" data-name="Path 4140" d="M182.545,490.979V490.8h-2.316v.179h.389v.4h.334s.095-.03.118-.079v.157a.126.126,0,0,1-.118.131h-.492c-.03,0-.059-.013-.059-.131v-.372h-.173v.477c0,.039.025.179.149.179h.666a.212.212,0,0,0,.184-.2v-.457h-.157c-.016.07-.007.118-.079.136h-.2v-.241h.571v.761h.2v-.761h.138v.761h.649a.2.2,0,0,0,.2-.2v-.45h-.157c0,.044-.007.109-.079.109h-.433v-.215Zm-.256.372c.03.009.069-.039.1-.079v.184c0,.07-.056.131-.1.131h-.413v-.236Z" transform="translate(-174.7 -475.742)" fill="#8c3494"/>
        <rect id="Rectangle_4355" data-name="Rectangle 4355" width="0.394" height="0.21" transform="translate(8.063 15.452)" fill="#8c3494"/>
        <path id="Path_4141" data-name="Path 4141" d="M282.688,490.78v.179h.648v.106h-.648v.424c.014.138.085.231.219.231h.586v-.761h.138v.761h.177v-.94h-1.12Zm.648.814h-.394c-.059-.009-.1-.079-.1-.157v-.21h.492Z" transform="translate(-274.015 -475.723)" fill="#8c3494"/>
        <path id="Path_4142" data-name="Path 4142" d="M346.878,490.979h.8v.106h-.236a.079.079,0,0,1-.157,0h-.409v.45c0,.044.007.187.127.2h.322v-.152h-.216a.1.1,0,0,1-.079-.1v-.236h.217v.131h.2v-.1c-.013-.048.206-.044.217,0v.467h.177v-.761h.118v.761h.177v-.94h-1.254v.179Z" transform="translate(-336.236 -475.742)" fill="#8c3494"/>
        <path id="Path_4143" data-name="Path 4143" d="M324.556,492.5h-.418v.246a.2.2,0,0,0,.2.184h.334v-.3a.145.145,0,0,0-.118-.126m-.127.264c-.076,0-.136-.028-.136-.062s.061-.062.136-.062.136.028.136.062-.061.062-.136.062" transform="translate(-314.193 -477.39)" fill="#8c3494"/>
        <path id="Path_4144" data-name="Path 4144" d="M325.079,509.56v.155l.5.209v-.164Z" transform="translate(-315.105 -493.927)" fill="#8c3494"/>
        <path id="Path_4145" data-name="Path 4145" d="M462.666,492.5h-.418v.246a.2.2,0,0,0,.2.184h.334v-.3a.146.146,0,0,0-.118-.126m-.127.264c-.076,0-.136-.028-.136-.062s.061-.062.136-.062.136.028.136.062-.061.062-.136.062" transform="translate(-448.066 -477.39)" fill="#8c3494"/>
        <path id="Path_4146" data-name="Path 4146" d="M463.159,509.56v.155l.505.209v-.164Z" transform="translate(-448.949 -493.927)" fill="#8c3494"/>
        <path id="Path_4147" data-name="Path 4147" d="M485.393,491.084v-.106h.326V490.8h-1.131v.179h.648v.106h-.648v.424c.014.138.085.231.219.231h.586v-.467h.157c.026,0,.033-.014.039.026v.079c-.01.039-.013.066-.039.079h-.058v.157h.117a.147.147,0,0,0,.118-.1v-.424h-.335Zm-.157.529h-.393c-.059-.009-.1-.079-.1-.157v-.21h.488l0,.026Z" transform="translate(-469.721 -475.742)" fill="#8c3494"/>
        <path id="Path_4148" data-name="Path 4148" d="M405.038,490.78v.179h.648v.106h-.648v.424c.013.138.085.231.219.231h.586v-.761h.2l-.075.149v.1h.138c.073.009.1.057.1.184,0,.087-.02.151-.088.157h-.129v.157h.138c.039,0,.219.018.236-.157.019-.355.036-.446-.217-.473l.037-.123h.277v.761h.177v-.94h-1.6Zm.648.814h-.394c-.059-.009-.1-.079-.1-.157v-.21h.492Z" transform="translate(-392.611 -475.723)" fill="#8c3494"/>
      </g>
    </g>
  </g>
  <g id="Group_8456" data-name="Group 8456" transform="translate(8 16.978)">
    <g id="Group_8455" data-name="Group 8455" clip-path="url(#clip-path-2)">
      <path id="Path_4149" data-name="Path 4149" d="M15.4,16.192H.794a.8.8,0,0,1-.794-.8V.8A.8.8,0,0,1,.794,0H15.4a.8.8,0,0,1,.795.8V15.393a.8.8,0,0,1-.795.8" fill="#df146e"/>
      <path id="Path_4150" data-name="Path 4150" d="M69.715,81.712l-5.134-.821.695,3.045Zm.208-.249-4.036-5.633L64.568,80.62Zm-5.6-.907-4.23-5.428,5.539.665Zm-2.052-2.25-2.347-2.223h.617Zm8.917.42-.993,2.706L68.579,79.2ZM65.9,83.9l3.9-1.572.165-.5Zm-3.251,2.859,1.67-5.886.846,3.831Zm8.77-8.011-.41,1.117,1.477-.026Z" transform="translate(-58.108 -72.846)" fill="#fff"/>
    </g>
  </g>
  <g id="Group_8458" data-name="Group 8458" transform="translate(31.852 16.978)">
    <g id="Group_8457" data-name="Group 8457" clip-path="url(#clip-path-3)">
      <path id="Path_4151" data-name="Path 4151" d="M15.115,42.243a5.881,5.881,0,0,1-.022.628,7.288,7.288,0,0,1-.65,2.512,6.984,6.984,0,0,1-.493.9A7.527,7.527,0,0,1,7.558,49.8a7.818,7.818,0,0,1-3.229-.718A7.567,7.567,0,0,1,4.194,35.47a6.316,6.316,0,0,0-.538.807c-.022.022-.022.045-.045.067-.09.09-.2.157-.292.247l-.336.336-.067.067a.311.311,0,0,0-.067.09.6.6,0,0,0-.112.135,3.3,3.3,0,0,0-.224.292,6.21,6.21,0,0,0-.785,1.346l-.067.135c-.022.067-.045.112-.067.179,0,.022-.022.067-.022.09-.022.09-.067.179-.09.269a.528.528,0,0,0-.045.179c0,.022-.022.067-.022.09-.022.067-.022.112-.045.179a4.489,4.489,0,0,0-.112.583c0,.045-.022.09-.022.157a.2.2,0,0,1-.022.112.493.493,0,0,1-.022.179V41.5a6.583,6.583,0,0,0,10.451,5.36,6.892,6.892,0,0,0,1.929-2.175c.067-.112.112-.224.179-.336a6.346,6.346,0,0,0,.628-2.6v-.224a5.674,5.674,0,0,0-.022-.628.022.022,0,0,1,.022.022,3.452,3.452,0,0,1,.292.269,3.081,3.081,0,0,1,.292-.449,5.9,5.9,0,0,1,.135.875,5.474,5.474,0,0,1,.022.628" transform="translate(0 -33.609)" fill="#ea2227"/>
      <path id="Path_4152" data-name="Path 4152" d="M35.836,56.462v.224a6.187,6.187,0,0,1-.628,2.6,2.445,2.445,0,0,1-.179.336A6.657,6.657,0,0,1,33.1,61.8a6.556,6.556,0,0,1-3.857,1.256,6.459,6.459,0,0,1-4.171-1.5A6.585,6.585,0,0,1,22.65,56.44v-.493a.494.494,0,0,1,.022-.179.2.2,0,0,1,.022-.112c0-.045.022-.09.022-.157a5.332,5.332,0,0,1,.112-.583c.022-.067.022-.112.045-.179,0-.022.022-.067.022-.09.022-.067.022-.112.045-.179.022-.09.067-.179.09-.269,0-.022.022-.067.022-.09.022-.067.045-.112.067-.179l.067-.135a6.212,6.212,0,0,1,.785-1.346,3.3,3.3,0,0,0,.224-.292c.045-.045.067-.09.112-.135a.31.31,0,0,0,.067-.09l.067-.067.336-.336a2.844,2.844,0,0,1,.292-.247c-.022.022-.022.045-.045.067s-.022.045-.045.09a7.678,7.678,0,0,0-.718,2.669c-.022.269-.045.538-.045.807,0,3.454,2.018,6.257,4.53,6.257H29a4.117,4.117,0,0,0,1.054-.135,4,4,0,0,0,2.938-3.857v-.112a3.957,3.957,0,0,0-1.233-2.781,8.352,8.352,0,0,1,1.5.2,6.7,6.7,0,0,1,2.489,1.256c.022,0,.022.022.045.022.022.269.045.471.045.7" transform="translate(-21.461 -48.591)" fill="#f69220"/>
      <path id="Path_4153" data-name="Path 4153" d="M35.049,56.462v.224a6.384,6.384,0,0,1-.628,2.624,2.448,2.448,0,0,1-.179.336,6.772,6.772,0,0,1-1.951,2.2,6.612,6.612,0,0,1-8.073-.247,6.636,6.636,0,0,1,.022-10.271l.067-.045c-.022.022-.022.045-.045.067s-.022.045-.045.067A6.567,6.567,0,0,0,32.245,61.8a6.657,6.657,0,0,0,1.929-2.175c.067-.112.112-.224.179-.336a6.483,6.483,0,0,0,.628-2.6v-.224a5.881,5.881,0,0,0-.022-.628v-.022c.022,0,.022.022.045.022l.022.022a5.469,5.469,0,0,1,.022.605" transform="translate(-20.651 -48.591)" fill="#f69220"/>
      <path id="Path_4154" data-name="Path 4154" d="M97.232,7.558s-5.382-1.009-7.916,3.678a6.422,6.422,0,0,1,4.306-4.709l-.762-1.435A5.52,5.52,0,0,1,97.12,4.06Z" transform="translate(-84.629 -3.791)" fill="#ea2227"/>
      <path id="Path_4155" data-name="Path 4155" d="M112.821,52s2.153-2.8,7.064-2.086l-.067-1.637a5.943,5.943,0,0,1,3.723,1.368L121.5,52.745a5.984,5.984,0,0,0-4.328-1.682,9.422,9.422,0,0,0-4.351.942" transform="translate(-106.901 -45.748)" fill="#f69220"/>
      <path id="Path_4156" data-name="Path 4156" d="M62.667,8.813S60.2,3.454,65.919,0l1.368,2.512a6.445,6.445,0,0,0-1.906,1.166,8.428,8.428,0,0,0-2.714,5.136" transform="translate(-58.877)" fill="#f69220"/>
      <path id="Path_4157" data-name="Path 4157" d="M126.076,125.919s-.471.112-.449-.135c0-.09.045-.112.09-.09,0-.045-.09-.157.112-.224a2.2,2.2,0,0,0,.157-.224c.022-.067.067-.135.247-.112a.882.882,0,0,1,.4.269c.112,0,.224.022.179.045s-.067.067-.045.067c0,0,.067.045-.112.045,0,.045.045.045.067.067a.031.031,0,0,1,0,.045s.022.09-.067.067c-.09-.045-.09-.067-.135-.067-.022,0-.09.022-.09.045s.112.09-.022.112c-.022.022.045.045,0,.067a2.218,2.218,0,0,1-.336.2c-.09,0-.112-.022-.112-.067s.045-.067.112-.067c.022-.022.022-.045,0-.045" transform="translate(-119.034 -118.564)" fill="#ec1c24"/>
      <path id="Path_4158" data-name="Path 4158" d="M130.974,142.221c-.045,0-.179-.09-.112-.135a4.734,4.734,0,0,1,.449-.269c.067-.022.157.067.067.135a4.12,4.12,0,0,1-.4.269" transform="translate(-123.977 -134.372)" fill="#ec1c24"/>
      <path id="Path_4159" data-name="Path 4159" d="M142.735,139.569c0-.045.045-.247.045-.292s.157-.045.112.112c-.022.179-.157.224-.157.179" transform="translate(-135.245 -131.944)" fill="#ec1c24"/>
      <path id="Path_4160" data-name="Path 4160" d="M141.317,138.1a6.271,6.271,0,0,1,.919,0,1.221,1.221,0,0,1,.292.9c-.067.4-.2.516-.74.561a1.473,1.473,0,0,0-.09-.561c-.045-.09-.247-.292-.336-.292,0,.09-.022.381-.022.381s-.269.022-.314-.045v-.426a3.024,3.024,0,0,0,.269-.269c.045.022.045.157.359.135.022-.045-.336,0-.336-.381" transform="translate(-133.624 -130.836)" fill="#ec1c24"/>
      <path id="Path_4161" data-name="Path 4161" d="M134.257,145.727s-.269.224-.336.269c-.022.067-.067.314.292.314.022-.157.045-.583.045-.583" transform="translate(-126.879 -138.08)" fill="#ec1c24"/>
      <path id="Path_4162" data-name="Path 4162" d="M125.7,148.413c-.09,0-.157-.022-.135-.09,0-.067.135-.135.2-.112s.2.045.2.336a.683.683,0,0,0,.426.2c.2.022.336-.022.336.045v.4s-.247,0-.875-.449a.343.343,0,0,1-.09-.224c0-.045-.045-.112-.067-.112" transform="translate(-118.969 -140.43)" fill="#ec1c24"/>
      <path id="Path_4163" data-name="Path 4163" d="M119.629,152.991c-.112,0-.4.247-.179.359a.458.458,0,0,0,.112-.112s-.045.135.067.179.067-.067.135-.067c.045.067.045.09.112.09s.067-.179,0-.269a.332.332,0,0,0-.247-.179" transform="translate(-113.103 -144.963)" fill="#ec1c24"/>
      <path id="Path_4164" data-name="Path 4164" d="M148.718,153.846v.785s.269-.09.292-.157c0-.135-.045-.628-.292-.628" transform="translate(-140.914 -145.773)" fill="#ec1c24"/>
      <path id="Path_4165" data-name="Path 4165" d="M136.752,163.675s.314.2.493.292c-.022.045-.157.2-.2.2a1.241,1.241,0,0,1-.292-.493" transform="translate(-129.576 -155.086)" fill="#ec1c24"/>
      <path id="Path_4166" data-name="Path 4166" d="M108.12,169.231h.4v.157h-.381Z" transform="translate(-102.446 -160.35)" fill="#ec1c24"/>
      <path id="Path_4167" data-name="Path 4167" d="M163.737,167.949h-1.772l.292.224h1.48Z" transform="translate(-153.466 -159.135)" fill="#ec1c24"/>
      <path id="Path_4168" data-name="Path 4168" d="M146.488,167.482c.022-.022.224.135.179.157a4.737,4.737,0,0,1-.65.247c-.045-.022-.045-.157.022-.179a1.383,1.383,0,0,0,.449-.224" transform="translate(-138.325 -158.691)" fill="#ec1c24"/>
      <path id="Path_4169" data-name="Path 4169" d="M138.447,171.142c-.067-.045-.426.314-.269.336a3.81,3.81,0,0,1,.628.135c.09-.045.179-.112.157-.157.067,0,.157.09.247.067a3.735,3.735,0,0,0,.538-.4.9.9,0,0,0-.359-.179c-.067,0-.65.336-.942.2" transform="translate(-130.89 -161.97)" fill="#ec1c24"/>
      <path id="Path_4170" data-name="Path 4170" d="M122.376,178.452a3.368,3.368,0,0,0,.605.157c.112-.022.135-.135.2-.135s.09.067.2,0a2.491,2.491,0,0,0,.336-.269c0,.067,0,.269-.4.449s-1.368.449-1.39.583c.045.022.157-.022.247-.067a.444.444,0,0,1,.112.381c-.022.2-.179.561-.179.65v.583c0,.045.09.292-.045.269a1.206,1.206,0,0,0-.247-.022c-.045,0-.135.09-.224.067s-.224-.045-.224-.09.09-.045.179-.067.135-.112.292-.179c0-.112-.045-.875-.045-1.032a1.946,1.946,0,0,1,.022-.628c.022-.135.381-.65.561-.65" transform="translate(-114.998 -168.853)" fill="#ec1c24"/>
      <path id="Path_4171" data-name="Path 4171" d="M151.709,186.616c0,.045.269.74.4.762a13.061,13.061,0,0,1,1.48-.157c.067.09.2.247.2.359a.906.906,0,0,1,0,.247c.045,0,.135-.022.157-.09s0-.359.022-.426c0-.045.135-.336-.045-.314a6.01,6.01,0,0,1-.9-.045,1.774,1.774,0,0,0-.65-.067.493.493,0,0,0-.2.247c-.045,0-.045-.022-.022-.157a1.847,1.847,0,0,0,.157-.65,2.543,2.543,0,0,0-.605.292" transform="translate(-143.748 -176.546)" fill="#ec1c24"/>
      <path id="Path_4172" data-name="Path 4172" d="M122.523,170.13c.022.022.022.09.067.112l-.919-.067s-.112-.067-.067-.09Z" transform="translate(-115.212 -161.16)" fill="#ec1c24"/>
      <path id="Path_4173" data-name="Path 4173" d="M118,165.991h.919a1.247,1.247,0,0,1-.09-.179c-.157,0-.852.022-.852.022s-.09,0-.09.179c-.022.045.067.112.112-.022" transform="translate(-111.695 -157.111)" fill="#ec1c24"/>
      <path id="Path_4174" data-name="Path 4174" d="M81.958,165.932h.179s.067-.022,0-.09-.179-.112-.09-.247c-.09-.022-.224-.045-.2.247h-.09s-.022-.157-.247-.157a3.3,3.3,0,0,0-.74.224,5.729,5.729,0,0,0,.74.157.321.321,0,0,0,.247-.135h.067a.39.39,0,0,0,.067.157v.179a.1.1,0,0,0-.067.135c.022.09.09.09.09.09a.456.456,0,0,1,.112-.022c.045-.045.022-.157-.067-.2v-.135s.067-.045.067-.09-.067-.045-.067-.112" transform="translate(-76.531 -156.894)" fill="#ec1c24"/>
      <path id="Path_4175" data-name="Path 4175" d="M110.315,173.12a.254.254,0,0,0,.09-.134v-.538c0-.134-.224-.224-.247-.224h-.022a.256.256,0,0,1-.135.067.167.167,0,0,1-.157-.067c-.179,0-.269.224-.292.224a3.613,3.613,0,0,0,0,.493.345.345,0,0,0,.09.135c-.045.135-.224.852.022.942v.112h.628v-.135c.224-.09.067-.7.022-.875m-.7-.673c.022-.022.09-.2.224-.2a.2.2,0,0,0,.179.067.335.335,0,0,0,.157-.067c.067.022.2.09.2.179v.538a.12.12,0,0,1-.067.09H110.2v-.224h-.426v.224h-.09a.191.191,0,0,1-.067-.112,1.74,1.74,0,0,1,0-.493m.426,1.48h-.112a.045.045,0,1,1,0-.09h.112a.045.045,0,1,1,0,.09m.224.045-.292-.336-.269.336c-.179-.067-.067-.628,0-.875h.583c.045.247.157.785-.022.875" transform="translate(-103.789 -163.185)" fill="#ec1c24"/>
      <path id="Path_4176" data-name="Path 4176" d="M113.536,190.756a.11.11,0,0,0-.022-.157h-.359c-.112,0-.067.157-.067.157l.224.2a.724.724,0,0,0,.224-.2" transform="translate(-107.145 -180.597)" fill="#ec1c24"/>
      <path id="Path_4177" data-name="Path 4177" d="M119.231,195.434l.224.269s-.022-.314-.022-.4c-.067,0-.2.135-.2.135" transform="translate(-112.974 -185.05)" fill="#ec1c24"/>
      <path id="Path_4178" data-name="Path 4178" d="M112.416,195.3c0,.112-.022.4-.022.4l.224-.269s-.134-.135-.2-.135" transform="translate(-106.496 -185.05)" fill="#ec1c24"/>
      <path id="Path_4179" data-name="Path 4179" d="M114.056,180.86h.045v-.045a.048.048,0,0,0-.045-.045h-.336a.048.048,0,0,0-.045.045v.045h.381Z" transform="translate(-107.71 -171.284)" fill="#ec1c24"/>
      <path id="Path_4180" data-name="Path 4180" d="M110.728,209.4h-.045v.045a.048.048,0,0,0,.045.045h.65a.048.048,0,0,0,.045-.045V209.4h-.7Z" transform="translate(-104.875 -198.413)" fill="#ec1c24"/>
    </g>
  </g>
</svg>
