<svg width="84" height="36" viewBox="0 0 84 36" fill="none" xmlns="http://www.w3.org/2000/svg">
<path d="M55.3681 11.6421H41.2892C41.0184 11.6421 40.8154 11.8452 40.8154 12.1159V13.1989C40.8154 13.4696 41.0184 13.6727 41.2892 13.6727H51.7807V19.4938C51.5099 19.0877 51.1715 18.6816 50.7654 18.2754C49.547 16.9894 48.1933 16.3802 46.8395 16.3802C45.7565 16.3802 44.8089 16.9217 44.0644 17.937C43.4552 18.7492 43.1167 19.7645 43.1167 20.6445C43.1167 21.5921 43.2521 22.7428 43.9967 23.8258C44.8766 25.1118 46.2303 25.518 47.4487 25.518C49.0732 25.518 50.4269 24.3673 50.4269 22.9458C50.4269 22.0659 50.0208 21.389 49.2086 20.9829L48.464 20.5768V21.7275C48.3963 22.0659 47.7871 22.5397 47.178 22.5397C46.6365 22.5397 46.095 22.3367 45.8242 21.9982C45.6212 21.7275 45.4858 21.389 45.5535 21.0506C45.5535 20.6445 45.6888 20.306 46.0273 19.8999C46.3657 19.4938 46.7042 19.2907 47.2457 19.2907C48.6671 19.2907 49.8178 19.9676 50.7654 21.3214C51.5099 22.472 51.9161 23.6227 51.9161 24.8411V27.7516L54.0144 29.0377C54.0821 29.1054 54.1497 29.1054 54.2174 29.1054C54.4882 29.1054 54.6912 28.9023 54.6912 28.6316V13.6727H55.5035C55.7742 13.6727 55.9773 13.4696 55.9773 13.1989V12.1159C55.7742 11.8452 55.5712 11.6421 55.3681 11.6421Z" fill="#EC1C24"/>
<path d="M83.4582 11.6421H65.6565C65.3857 11.6421 65.1827 11.8451 65.1827 12.1159V14.0788C63.4905 12.2513 61.9337 11.3713 60.5123 11.3713C59.1585 11.3713 58.0755 11.7098 57.1279 12.3866C56.1803 13.1312 55.7065 14.0111 55.7065 15.0264C55.7065 18.1401 59.2262 18.1401 60.0385 17.6662C60.1738 17.5986 60.3769 17.4632 60.6476 17.4632C61.3245 17.4632 61.5953 18.0047 61.5953 18.4785C61.5953 19.223 60.58 19.8322 59.3616 19.8322C58.6847 19.8322 58.2109 19.6292 57.9402 19.223L57.3987 18.4108L56.9925 19.3584C56.9248 19.5615 56.7895 19.8322 56.7895 20.1707C56.7895 20.9152 57.1279 21.5921 57.8048 22.1336C58.4817 22.6751 59.2262 22.9458 60.0385 22.9458C61.3922 22.9458 62.4752 22.472 63.2198 21.5244C63.8289 20.7799 64.0997 19.8322 64.0997 18.8169C64.0997 18.2077 63.8966 17.6662 63.4228 16.9894C62.8813 16.1771 62.2044 15.771 61.3922 15.771C61.1214 15.771 60.783 15.8387 60.3769 15.9741C60.2415 15.9064 60.0385 15.9741 59.9708 15.9741C59.8354 15.9741 59.6323 15.9064 59.497 15.7033C59.3616 15.5679 59.2262 15.3649 59.2262 15.0264C59.2262 14.2819 59.9708 13.4696 61.1891 13.4696H61.2568C62.0691 13.4696 62.8813 13.8758 63.6936 14.688C64.3027 15.2972 64.8442 15.9064 65.1827 16.5832V27.6839L67.281 28.9023C67.3487 28.97 67.4164 28.97 67.484 28.97C67.7548 28.97 67.9579 28.7669 67.9579 28.4962V13.605H71.1391V23.2166L73.6436 24.2319H73.7789C73.982 24.2319 74.1851 24.0288 74.2528 23.8258V23.7581C74.6589 20.9152 75.9449 18.9523 78.0432 17.7339V18.2754C78.0432 18.6815 78.0432 19.6969 78.1109 20.306C78.1109 20.6445 78.1109 20.8475 78.1786 21.0506C78.1786 22.1336 78.314 23.8935 78.7201 25.1118C79.397 27.4809 80.6154 28.0224 81.4953 28.0901H81.563C82.1045 28.0901 82.4429 27.9547 82.7137 27.6839C82.849 27.5486 83.0521 27.2101 83.0521 26.804C83.0521 26.3302 82.9844 25.9918 82.849 25.7887L82.646 25.4503L82.2398 25.518C81.766 25.6533 81.6307 25.6533 81.6307 25.5856H81.563C81.4276 25.5856 81.4276 25.5856 81.3599 25.518C81.2245 25.4503 80.9538 25.1795 80.7507 24.435C80.6154 23.8935 80.5477 23.0812 80.5477 22.6751C80.5477 19.5615 81.2245 17.1924 82.1722 16.6509H82.2398C82.3752 16.5832 82.5106 16.4479 82.5106 16.2448C82.5106 16.1771 82.5106 16.1094 82.4429 16.0418V15.9741C81.9691 15.0264 80.9538 14.3496 79.5324 13.9434H79.2616C78.1786 14.1465 76.8249 14.8911 75.1327 16.3125C74.7266 16.6509 74.3204 17.0571 73.9143 17.3955V13.5373H83.5259C83.7966 13.5373 83.9997 13.3343 83.9997 13.0635V11.9805C83.932 11.8451 83.729 11.6421 83.4582 11.6421Z" fill="#EC1C24"/>
<path d="M32.9636 18.8171C32.9636 19.2909 32.9636 19.697 32.896 20.1708C32.7606 22.1338 32.2191 23.9613 31.4745 25.6535C31.1361 26.3304 30.7977 27.0072 30.3915 27.6164C27.481 32.2191 22.3368 35.3327 16.448 35.3327C13.9436 35.3327 11.5745 34.7912 9.40851 33.7759C3.85817 31.1361 0 25.4504 0 18.8171C0 12.3868 3.72279 6.76877 9.13777 4.06128C8.73164 4.60278 8.32552 5.21196 7.98708 5.82115C7.98708 5.88883 7.9194 5.88883 7.9194 5.95652C7.71634 6.15958 7.51327 6.29496 7.31021 6.49802C7.03946 6.70108 6.8364 6.97183 6.56565 7.24258C6.49797 7.31026 6.43028 7.37795 6.43028 7.44564C6.36259 7.51332 6.29491 7.58101 6.29491 7.6487L6.02416 7.91945C5.82109 8.12251 5.68572 8.32557 5.55035 8.52863C4.87348 9.40857 4.33198 10.4239 3.85817 11.4392C3.79048 11.5746 3.79048 11.6422 3.72279 11.7776C3.65511 11.913 3.65511 12.0484 3.58742 12.1161C3.38436 12.2514 3.38436 12.3191 3.38436 12.3868L3.1813 12.996C3.11361 13.1314 3.11361 13.2667 3.04592 13.4021C3.04592 13.4698 2.97823 13.5375 2.97823 13.6052C2.97823 13.7405 2.91055 13.8759 2.91055 14.0113C2.84286 14.3497 2.70749 14.7558 2.70749 15.162C2.70749 15.2973 2.70749 15.365 2.6398 15.5004V17.1926C2.6398 21.6599 4.67041 25.6535 7.9194 28.2933C10.4238 30.3239 13.6051 31.5423 17.0572 31.5423C20.1708 31.5423 23.0813 30.527 25.4504 28.8348C27.2102 27.6164 28.6317 25.9919 29.647 24.0967C29.7823 23.8259 29.9177 23.6229 30.0531 23.3521C30.8653 21.5923 31.3392 19.697 31.4068 17.6664V17.1926C31.4068 16.7188 31.4068 16.245 31.3392 15.7712L31.4068 15.8388C31.6099 16.0419 31.813 16.245 32.0837 16.3803C32.2868 16.0419 32.4898 15.7035 32.7606 15.4327C32.896 16.0419 32.9636 16.7188 33.0313 17.328C32.896 17.8695 32.9636 18.3433 32.9636 18.8171Z" fill="#EC1C24"/>
<path d="M31.3392 17.1926V17.6664C31.3392 20.5769 30.1208 23.0136 29.9854 23.3521C29.8501 23.6228 29.7147 23.8259 29.5793 24.0966C28.564 25.9919 27.0749 27.6164 25.3827 28.8347C23.0137 30.5269 20.1031 31.5422 16.9895 31.5422C13.5375 31.5422 10.3562 30.3239 7.85174 28.2932C4.60276 25.6534 2.57214 21.6599 2.57214 17.1926V15.5004C2.57214 15.365 2.57214 15.2973 2.63983 15.1619C2.70752 14.7558 2.84289 14.3497 2.91058 13.9436C2.91058 13.8082 2.97827 13.6728 2.97827 13.5374C2.97827 13.4698 3.04595 13.4021 3.04595 13.3344C3.11364 13.199 3.11364 13.0636 3.18133 12.9283C3.24901 12.7252 3.3167 12.5898 3.38439 12.3868C3.38439 12.3191 3.45208 12.2514 3.45208 12.1837C3.51976 12.0483 3.51976 11.913 3.58745 11.8453C3.65514 11.7099 3.65514 11.6422 3.72283 11.5068C4.19664 10.4238 4.73813 9.47621 5.415 8.59628C5.55038 8.39322 5.75344 8.19016 5.88881 7.9871C5.9565 7.91941 6.02419 7.78404 6.15956 7.71635C6.22725 7.64866 6.22725 7.58097 6.29494 7.51329C6.36262 7.4456 6.43031 7.37791 6.43031 7.31023C6.63337 7.03948 6.90412 6.83642 7.17487 6.56567C7.37793 6.36261 7.58099 6.15954 7.78405 6.02417C7.78405 6.09186 7.71637 6.15954 7.71637 6.15954C7.71637 6.22723 7.64868 6.29492 7.64868 6.36261C6.83643 8.05478 6.29494 10.0177 6.09188 12.1837C6.02419 12.7252 6.02419 13.3344 6.02419 13.9436C6.02419 21.4568 10.4239 27.5487 15.9065 27.5487H16.5157C17.3279 27.5487 18.0725 27.4133 18.8171 27.2102C22.5399 26.1949 25.2473 22.8106 25.2473 18.817V18.5463C25.1797 16.1772 24.1643 14.0113 22.5399 12.5221C23.6905 12.5221 24.7735 12.7252 25.7888 12.9959C27.8195 13.5374 29.647 14.4851 31.2038 15.7034L31.2715 15.7711C31.2715 16.2449 31.3392 16.7187 31.3392 17.1926Z" fill="#F6921E"/>
<path d="M31.3391 17.1924V17.6662C31.3391 20.7798 29.9854 23.352 29.9854 23.4196C29.85 23.6904 29.7146 23.8935 29.5793 24.1642C28.564 26.0594 27.0748 27.6839 25.3827 28.97C22.9459 30.7299 19.9677 31.6775 16.9218 31.6775C13.6051 31.6775 10.3561 30.5268 7.78399 28.4285C4.39964 25.6533 2.50439 21.5921 2.50439 17.2601C2.50439 12.9281 4.46732 8.79922 7.85168 6.02405L7.98705 5.88867C7.98705 5.95636 7.91937 5.95636 7.91937 6.02405C7.91937 6.09173 7.85168 6.15942 7.85168 6.15942C4.53501 8.86691 2.70746 12.9281 2.70746 17.1924C2.70746 21.5244 4.6027 25.5179 7.98705 28.2931C10.4238 30.3914 13.6051 31.5421 16.9218 31.5421C19.9677 31.5421 22.8105 30.5945 25.315 28.8346C27.0071 27.6163 28.4963 25.9241 29.5116 24.0965C29.6469 23.8258 29.7823 23.6227 29.9177 23.352C29.9177 23.352 31.3391 20.7122 31.2714 17.6662V17.1924C31.2714 16.7186 31.2714 16.2448 31.2037 15.8387V15.771L31.2714 15.8387L31.3391 15.9064V17.1924Z" fill="#F6921E"/>
<path d="M27.4133 8.2578C27.4133 8.2578 15.6357 6.02412 10.1531 16.2449C10.1531 16.2449 11.1007 9.20542 19.4939 5.95644L17.8017 2.84283C17.8017 2.84283 21.1861 -0.203094 27.0749 0.609152L27.4133 8.2578Z" fill="#EC1C24"/>
<path d="M12.8605 13.6729C12.8605 13.6729 17.5309 7.51335 28.2932 9.13785L28.1578 5.55043C28.1578 5.55043 32.6252 5.41505 36.2803 8.52866L31.8129 15.2974C31.8129 15.2974 28.767 11.71 22.4044 11.6423C19.7646 11.5746 16.5833 11.913 12.8605 13.6729Z" fill="#F6921E"/>
<path d="M15.365 16.0418C15.365 16.0418 14.3497 16.2448 14.4174 15.771C14.4174 15.5679 14.5527 15.5003 14.6204 15.5679C14.6204 15.5003 14.4174 15.2295 14.8912 15.0941C15.0265 14.8911 15.1619 14.688 15.2296 14.5526C15.2973 14.4173 15.365 14.2142 15.7711 14.3496C16.1772 14.4173 16.5834 14.8234 16.651 14.9588C16.8541 14.9588 17.1249 15.0264 17.0572 15.0264L16.9218 15.1618C16.9218 15.1618 17.0572 15.2295 16.651 15.2295C16.651 15.2972 16.7187 15.3649 16.7864 15.3649C16.8541 15.4326 16.7864 15.4326 16.7864 15.5003C16.7864 15.5003 16.8541 15.7033 16.651 15.6356C16.448 15.5679 16.448 15.5003 16.3803 15.5003C16.3126 15.5003 16.1772 15.5003 16.1772 15.5679C16.1772 15.6356 16.3803 15.771 16.1772 15.771C16.1095 15.8387 16.2449 15.9064 16.1772 15.9064C16.1095 15.9741 15.6357 16.3125 15.4327 16.3802C15.2296 16.3802 15.1619 16.3125 15.1619 16.2448C15.1619 16.1771 15.2973 16.1094 15.4327 16.1094C15.365 16.1094 15.4327 16.0418 15.365 16.0418Z" fill="#EC1C24"/>
<path d="M15.2973 17.1248C15.2296 17.1248 14.8912 16.9218 15.0942 16.8541C15.2296 16.7187 15.9065 16.3126 16.0419 16.2449C16.1772 16.1772 16.3803 16.3803 16.1772 16.5156C15.9742 16.7187 15.2973 17.1248 15.2973 17.1248Z" fill="#EC1C24"/>
<path d="M16.3126 16.6511C16.3126 16.5157 16.4479 16.1096 16.4479 16.0419C16.4479 15.9742 16.7864 15.9065 16.7187 16.3126C16.5833 16.6511 16.3126 16.7864 16.3126 16.6511Z" fill="#EC1C24"/>
<path d="M16.7864 15.8387C16.7864 15.8387 18.6817 15.771 18.817 15.8387C18.9524 15.9064 19.6293 16.9217 19.4262 17.8016C19.2909 18.6815 19.0201 18.8846 17.8017 19.02C17.8017 18.7492 17.7341 18.0047 17.5987 17.8016C17.4633 17.5985 17.0572 17.1247 16.9218 17.1247C16.9218 17.3278 16.8541 17.937 16.8541 17.937C16.8541 17.937 16.2449 18.0047 16.1772 17.8693V16.9217C16.1772 16.9217 16.7187 16.4479 16.7864 16.3125C16.8541 16.3802 16.9218 16.6509 17.531 16.5832C17.531 16.6509 16.7864 16.7186 16.7864 15.8387Z" fill="#EC1C24"/>
<path d="M16.0419 16.7188C16.0419 16.7188 15.4327 17.1926 15.2973 17.3279C15.2296 17.4633 15.1619 18.0048 15.9065 18.0048C16.0419 17.6664 16.0419 16.7188 16.0419 16.7188Z" fill="#EC1C24"/>
<path d="M14.6204 17.4631C14.4174 17.4631 14.282 17.3954 14.282 17.26C14.282 17.1246 14.5527 16.9216 14.7558 16.9893C14.8912 17.057 15.2296 17.1246 15.2296 17.7338C15.365 17.8692 15.7034 18.14 16.1772 18.14C16.651 18.14 16.9218 18.14 16.9218 18.2753V19.1553C16.9218 19.1553 16.3803 19.1553 15.0265 18.2076C14.8912 18.0723 14.8235 17.9369 14.8235 17.7338C14.8235 17.5308 14.6881 17.4631 14.6204 17.4631Z" fill="#EC1C24"/>
<path d="M14.2143 17.531C14.0112 17.531 13.3344 18.0725 13.8082 18.2756L14.0789 18.0048C14.0789 18.0048 13.9436 18.3433 14.2143 18.4109C14.485 18.4786 14.3497 18.2756 14.485 18.2756C14.5527 18.4109 14.5527 18.4786 14.6881 18.4786C14.8235 18.4786 14.8235 18.0725 14.6881 17.8694C14.6204 17.6664 14.485 17.531 14.2143 17.531Z" fill="#EC1C24"/>
<path d="M17.0572 17.5984V19.3583C17.0572 19.3583 17.5987 19.1552 17.6664 19.0198C17.6664 18.7491 17.531 17.5984 17.0572 17.5984Z" fill="#EC1C24"/>
<path d="M15.6357 18.7493C15.6357 18.7493 16.3126 19.2231 16.7187 19.3585C16.651 19.4261 16.3803 19.8323 16.2449 19.7646C16.1772 19.7646 15.7034 19.0877 15.6357 18.7493Z" fill="#EC1C24"/>
<path d="M12.319 19.426H13.2667V19.7645H12.3867L12.319 19.426Z" fill="#EC1C24"/>
<path d="M22.4044 19.2229H18.5463L19.1554 19.6967H22.4044V19.2229Z" fill="#EC1C24"/>
<path d="M17.8017 19.223C17.8694 19.1553 18.3432 19.4938 18.2079 19.5614C18.0725 19.6291 16.8541 20.1029 16.7864 20.1029C16.6511 20.0353 16.7188 19.7645 16.8541 19.6968C16.9218 19.6291 17.5987 19.4261 17.8017 19.223Z" fill="#EC1C24"/>
<path d="M16.448 20.0355C16.3126 19.9678 15.568 20.7124 15.9065 20.7801C16.2449 20.8477 17.0571 20.9831 17.2602 21.1185C17.4633 21.0508 17.5986 20.8477 17.5986 20.7801C17.734 20.7801 17.9371 20.9831 18.1401 20.9154C18.3432 20.8477 19.2908 20.1709 19.2908 20.0355C19.0878 19.9001 18.6816 19.6294 18.4786 19.6294C18.3432 19.5617 17.1248 20.3062 16.448 20.0355Z" fill="#EC1C24"/>
<path d="M16.0418 20.9829C16.1095 20.9829 17.1248 21.3213 17.3279 21.3213C17.5986 21.2537 17.5986 21.0506 17.734 21.0506C17.8694 21.0506 17.9371 21.186 18.1401 21.0506C18.3432 20.9152 18.817 20.5091 18.8847 20.4414C18.8847 20.5768 18.8847 20.9829 18.0048 21.389C17.1248 21.7951 15.0265 22.4043 14.9588 22.6751C15.0265 22.6751 15.2973 22.6074 15.5003 22.5397C15.6357 22.6074 15.8388 22.8781 15.7711 23.352C15.7034 23.8258 15.365 24.5703 15.365 24.7734V26.0594C15.365 26.1271 15.568 26.7363 15.2973 26.6686C15.0265 26.6009 14.8912 26.6009 14.7558 26.6686C14.6204 26.6686 14.4174 26.8717 14.282 26.804C14.0789 26.804 13.8082 26.6686 13.8082 26.6009C13.8082 26.5333 14.0112 26.5332 14.2143 26.4656C14.4174 26.3979 14.485 26.1948 14.8235 26.0594C14.8235 25.8564 14.6881 24.1642 14.6881 23.8258C14.6881 23.4873 14.5527 22.7428 14.7558 22.472C14.8912 22.0659 15.7034 20.9152 16.0418 20.9829Z" fill="#EC1C24"/>
<path d="M17.3279 21.9305C17.3279 22.0659 17.9371 23.555 18.2078 23.555C18.4786 23.555 20.983 23.0135 21.4568 23.2166C21.5922 23.4197 21.8629 23.7581 21.8629 23.9611C21.8629 23.9611 21.9306 24.435 21.8629 24.5026C21.9306 24.5026 22.1337 24.435 22.2014 24.2996C22.269 24.1642 22.2014 23.4873 22.2014 23.352C22.2014 23.2166 22.5398 22.6074 22.1337 22.6751C21.7275 22.6751 20.5769 22.6751 20.1707 22.6074C19.8323 22.5397 18.9524 22.3367 18.7493 22.472C18.5462 22.6074 18.2755 22.9458 18.2755 23.0135C18.2078 23.0135 18.1401 22.9458 18.2755 22.6751C18.3432 22.4043 18.6816 21.6598 18.6139 21.2537C18.4109 21.3213 17.3279 21.9305 17.3279 21.9305Z" fill="#EC1C24"/>
<path d="M15.9065 19.5616C15.9065 19.6293 15.9742 19.7646 16.0419 19.8323L14.0789 19.697C14.0789 19.697 13.8759 19.5616 13.9436 19.4939L15.9065 19.5616Z" fill="#EC1C24"/>
<path d="M13.7405 19.4261H15.7034C15.7034 19.4261 15.568 19.223 15.5003 19.0876H13.6728C13.6728 19.0876 13.4697 19.0876 13.4697 19.4938C13.4697 19.5615 13.6051 19.6968 13.7405 19.4261Z" fill="#EC1C24"/>
<path d="M11.8452 19.7646H12.2514C12.2514 19.7646 12.3867 19.6969 12.2514 19.5616C12.116 19.4262 11.8452 19.2908 12.0483 19.0201C11.8452 19.0201 11.5745 18.9524 11.6422 19.5616H11.4391C11.4391 19.5616 11.3714 19.2231 10.8976 19.2231C10.4238 19.2231 9.27313 19.6969 9.27313 19.6969C9.27313 19.6969 10.5592 20.0354 10.8976 20.0354C11.2361 20.0354 11.4391 19.6969 11.4391 19.6969H11.5745C11.5745 19.6969 11.6422 19.9677 11.7099 20.0354V20.4415C11.7099 20.4415 11.5068 20.5092 11.5745 20.7122C11.5745 20.9153 11.7099 20.9153 11.7776 20.9153C11.8452 20.9153 11.8452 20.8476 12.0483 20.8476C12.116 20.7799 12.0483 20.5092 11.9129 20.4415V20.1707C11.9129 20.1707 12.0483 20.0354 12.0483 19.9677C11.9806 19.8323 11.8452 19.9 11.8452 19.7646Z" fill="#EC1C24"/>
<path d="M14.2143 21.6599C14.3496 21.5922 14.4173 21.3891 14.4173 21.3891V20.2385C14.4173 19.9677 13.9435 19.7646 13.8758 19.7646C13.8081 19.8323 13.6728 19.9 13.6051 19.9C13.4697 19.9 13.402 19.9 13.2666 19.7646C12.8605 19.7646 12.6575 20.2385 12.6575 20.3061C12.6575 20.3738 12.5898 21.2538 12.6575 21.3891C12.6575 21.5245 12.7928 21.6599 12.8605 21.7276C12.7928 21.9983 12.3867 23.5551 12.9282 23.7582V24.0289H14.282V23.7582C14.6881 23.4198 14.3496 22.066 14.2143 21.6599ZM12.6575 20.2385C12.6575 20.1708 12.8605 19.8323 13.1313 19.8323C13.2666 19.9677 13.402 19.9677 13.5374 19.9677C13.6728 19.9677 13.8081 19.8323 13.8758 19.8323C14.0112 19.9 14.282 20.0354 14.282 20.2385V21.3891C14.282 21.4568 14.2143 21.5245 14.1466 21.5922H13.8758V21.0507H12.9959V21.5245H12.7928C12.7251 21.4568 12.6575 21.3891 12.6575 21.2538V20.2385ZM13.6051 23.4198H13.3343C13.2666 23.4198 13.199 23.3521 13.199 23.2844C13.199 23.2167 13.2666 23.149 13.3343 23.149H13.6051C13.6728 23.149 13.7405 23.2167 13.7405 23.2844C13.7405 23.3521 13.6728 23.4198 13.6051 23.4198ZM14.1466 23.5551L13.4697 22.8106L12.8605 23.5551C12.4544 23.4198 12.7252 22.2014 12.8605 21.6599H14.1466C14.282 22.2014 14.485 23.3521 14.1466 23.5551Z" fill="#EC1C24"/>
<path d="M13.9435 22.2012C14.0789 21.9982 13.8759 21.8628 13.8759 21.8628H13.0636C12.7929 21.8628 12.8605 22.2012 12.8605 22.2012L13.3344 22.6074C13.4697 22.6074 13.8082 22.4043 13.9435 22.2012Z" fill="#EC1C24"/>
<path d="M13.6052 22.6751L14.079 23.2166C14.079 23.2166 14.0113 22.5397 14.0113 22.3367C13.9436 22.4044 13.6052 22.6751 13.6052 22.6751Z" fill="#EC1C24"/>
<path d="M12.9282 22.3367C12.9282 22.5397 12.8605 23.2166 12.8605 23.2166L13.3343 22.6751C13.3343 22.6751 13.0636 22.4044 12.9282 22.3367Z" fill="#EC1C24"/>
<path d="M13.8758 20.9152H13.9435V20.8475C13.9435 20.7798 13.8758 20.7798 13.8758 20.7798H13.1313C13.0636 20.7798 13.0636 20.8475 13.0636 20.8475V20.9152H13.1313H13.8758Z" fill="#EC1C24"/>
<path d="M12.7928 24.0288H12.7252V24.0965C12.7252 24.1642 12.7928 24.1642 12.7928 24.1642H14.1466C14.2143 24.1642 14.2143 24.0965 14.2143 24.0965V24.0288H14.1466H12.7928Z" fill="#EC1C24"/>
<path d="M8.25787 19.2232C8.25787 19.2232 2.91058 7.51327 15.365 0L18.3433 5.48266C18.3433 5.48266 16.3126 6.15953 14.1466 8.05477C11.7776 10.0854 9.27317 13.4697 8.25787 19.2232Z" fill="#F6921E"/>
<path d="M42.2368 33.1664V34.0464L42.9814 33.7756L43.1844 33.9787V34.2494C43.1844 34.5202 43.1167 34.7909 42.9137 34.994C42.7783 35.1971 42.5075 35.2647 42.2368 35.2647C41.8984 35.2647 41.6276 35.1294 41.4246 34.8586C41.2215 34.6556 41.0861 34.3848 40.9507 34.0464L41.1538 33.911C41.4246 34.6556 41.763 34.994 42.2368 34.994C42.4399 34.994 42.5752 34.9263 42.7106 34.7909C42.846 34.6556 42.9137 34.5202 42.9137 34.3171C42.9137 34.2494 42.9137 34.1817 42.846 34.1141L42.1691 34.3848L41.9661 34.1141V33.1664H40.8154V32.9634H43.3875V33.1664H42.2368Z" fill="#231F20"/>
<path d="M43.6582 35.1971V33.1664H43.3198V32.9634H44.1997V33.1664H43.9289V35.1971H43.6582Z" fill="#231F20"/>
<path d="M45.6211 33.1664V33.3018C45.8242 33.3018 46.0273 33.3695 46.2303 33.5049C46.4334 33.6403 46.5688 33.7756 46.5688 33.9787C46.5688 34.1141 46.5011 34.2494 46.3657 34.3848C46.2303 34.4525 46.0949 34.5202 45.9596 34.5202H45.8919V34.2494H46.0273C46.2303 34.2494 46.298 34.1817 46.298 33.9787C46.298 33.7756 46.0949 33.6403 45.6211 33.5726V35.1971H45.3504L44.9443 34.5879C44.7412 34.3848 44.5381 34.3171 44.2674 34.3171L44.1997 33.9787C44.3351 33.8433 44.7412 33.6403 45.3504 33.3018V33.1664H44.132V32.9634H46.7041V33.1664H45.6211ZM45.3504 33.5726C45.215 33.6403 45.0796 33.7079 45.012 33.7756L44.6735 34.1141C44.8089 34.1817 44.9443 34.3171 45.012 34.4525C45.0796 34.5202 45.215 34.6556 45.3504 34.8586V33.5726Z" fill="#231F20"/>
<path d="M50.1562 32.5575C49.75 32.2867 49.3439 32.1514 49.0732 32.1514C48.8024 32.1514 48.5994 32.2191 48.3963 32.3544C48.1932 32.4898 48.1255 32.6929 48.1255 32.9636H48.3963V33.1667H48.1255V35.1296H47.8548V33.1667H47.584V32.9636H47.8548C47.8548 32.6252 47.9902 32.3544 48.1932 32.1514C48.3963 31.9483 48.667 31.8806 49.0055 31.8806C49.2085 31.8806 49.4116 31.9483 49.6823 32.016C49.8177 32.0837 50.0208 32.2191 50.2915 32.3544L50.1562 32.5575Z" fill="#231F20"/>
<path d="M50.3592 33.1665V35.1971H50.0885C49.9531 34.9941 49.75 34.791 49.4116 34.5879C49.0732 34.3849 48.8024 34.3172 48.5317 34.3172L48.464 33.9787C48.5994 33.8434 48.8701 33.708 49.2762 33.5726C49.4116 33.5049 49.6824 33.4372 50.1562 33.2342V33.0988H48.3286V32.8958H50.6977V33.0988H50.3592V33.1665ZM50.0885 33.5726C49.8177 33.6403 49.4116 33.8434 48.8701 34.1141C49.3439 34.3172 49.75 34.5202 50.0885 34.791V33.5726Z" fill="#231F20"/>
<path d="M50.5623 32.9634H53.0667V33.1664H50.5623V32.9634ZM51.9838 35.1971C51.713 35.1971 51.4423 35.0617 51.1715 34.7909C50.9684 34.5879 50.8331 34.3171 50.6977 33.9787L50.8331 33.8433C50.9008 34.1141 51.0361 34.3848 51.2392 34.5879C51.4422 34.8586 51.6453 34.994 51.9161 34.994C52.1191 34.994 52.2545 34.9263 52.3899 34.7909C52.5252 34.6556 52.5929 34.5202 52.5929 34.3171C52.3899 34.4525 52.2545 34.5202 52.0514 34.5202C51.9161 34.5202 51.713 34.4525 51.6453 34.3848C51.5099 34.2494 51.4423 34.1141 51.4423 33.9787C51.4423 33.8433 51.5099 33.7079 51.5776 33.5726C51.6453 33.5049 51.7807 33.4372 51.9838 33.4372C52.1191 33.4372 52.1868 33.4372 52.2545 33.5049C52.3222 33.5726 52.3899 33.6403 52.3899 33.7756C52.3899 33.8433 52.3222 33.9787 52.2545 34.0464L52.0514 33.911C52.1191 33.8433 52.1191 33.8433 52.1191 33.7756C52.1191 33.7079 52.0514 33.6403 51.9838 33.6403C51.9161 33.6403 51.8484 33.6403 51.7807 33.7079C51.713 33.7756 51.713 33.8433 51.713 33.911C51.713 34.0464 51.7807 34.1141 51.8484 34.1817C51.9161 34.2494 51.9837 34.3171 52.1191 34.3171C52.3222 34.3171 52.5252 34.2494 52.6606 34.0464L52.9314 34.3171C52.9314 34.5879 52.8637 34.8586 52.6606 34.994C52.4576 35.0617 52.2545 35.1971 51.9838 35.1971Z" fill="#231F20"/>
<path d="M53.3375 35.1971V33.1664H52.9991V32.9634H53.879V33.1664H53.5406V35.1971H53.3375Z" fill="#231F20"/>
<path d="M54.8943 35.3324C54.6235 35.3324 54.4205 35.2647 54.2851 35.1971C54.082 34.994 53.9466 34.6556 53.9466 34.3171C53.9466 34.1141 54.0143 33.911 54.1497 33.7079C54.2174 33.5726 54.3528 33.3695 54.5558 33.1664H53.7436V32.9634H55.0296V33.1664C54.8266 33.2341 54.6235 33.3695 54.4881 33.6403C54.2851 33.8433 54.2174 34.1141 54.2174 34.3171C54.2174 34.8586 54.4205 35.1294 54.8943 35.1294C54.962 35.1294 55.0296 35.1294 55.0973 35.0617V35.3324H54.8943Z" fill="#231F20"/>
<path d="M56.5865 33.1666V35.1295H56.3157V33.8434C56.3157 33.7757 56.248 33.7081 56.1803 33.6404C56.045 33.3696 55.8419 33.2342 55.5712 33.2342C55.5035 33.2342 55.3681 33.3019 55.3004 33.3696L55.165 33.505C55.3004 33.4373 55.3681 33.4373 55.4358 33.4373C55.5712 33.4373 55.6388 33.4373 55.7742 33.505C55.8419 33.5727 55.9096 33.6404 55.9096 33.7757C55.9096 33.9111 55.8419 34.0465 55.7065 34.1819C55.5712 34.3172 55.4358 34.4526 55.3004 34.4526L55.165 34.2496C55.3004 34.1819 55.3681 34.1142 55.5035 34.0465C55.6388 33.9111 55.7065 33.8434 55.7065 33.7081C55.7065 33.6404 55.6388 33.5727 55.5035 33.5727C55.3681 33.5727 55.3004 33.505 55.2327 33.505H55.165L55.0297 33.2342L55.3004 32.9635C55.4358 32.8958 55.5035 32.8281 55.6388 32.8281C55.9096 32.8281 56.1803 32.9635 56.3834 33.3019V32.8281H56.8572V33.0312H56.5865V33.1666Z" fill="#231F20"/>
<path d="M58.8202 33.1664V35.1971H58.5494C58.414 34.994 58.211 34.7909 57.8725 34.6556C57.5341 34.4525 57.2634 34.3848 56.9926 34.3848L56.9249 34.0464C57.331 33.7756 57.8725 33.5726 58.5494 33.3018V33.1664H56.7896V32.9634H59.0909V33.1664H58.8202ZM58.5494 33.5726C58.1433 33.7079 57.7372 33.911 57.3987 34.1141C57.8049 34.2494 58.211 34.4525 58.5494 34.7909V33.5726ZM57.8725 35.2647C57.8049 35.1971 57.6695 35.0617 57.4664 34.994L57.6018 34.7909C57.7372 34.8586 57.8725 34.9263 58.0079 35.0617L57.8725 35.2647Z" fill="#231F20"/>
<path d="M62.5429 32.5575C62.1368 32.2867 61.7307 32.1514 61.4599 32.1514C61.1892 32.1514 60.9861 32.2191 60.7831 32.3544C60.58 32.4898 60.5123 32.6929 60.5123 32.9636H60.7831V33.1667H60.5123V35.1296H60.2416V33.1667H59.9708V32.9636H60.2416C60.2416 32.6252 60.3769 32.3544 60.58 32.1514C60.7831 31.9483 61.0538 31.8806 61.3923 31.8806C61.5953 31.8806 61.7984 31.9483 62.0691 32.016C62.2045 32.0837 62.4076 32.2191 62.6783 32.3544L62.5429 32.5575Z" fill="#231F20"/>
<path d="M62.0691 33.1666V34.0466L62.8137 33.7758L63.0168 33.9789V34.2496C63.0168 34.5204 62.9491 34.7911 62.746 34.9942C62.6106 35.1972 62.3399 35.2649 62.0691 35.2649C61.7307 35.2649 61.46 35.1296 61.2569 34.8588C61.0538 34.6557 60.9185 34.385 60.7831 34.0466L60.9861 33.9112C61.2569 34.6557 61.5953 34.9942 62.0691 34.9942C62.2722 34.9942 62.4076 34.9265 62.5429 34.7911C62.6783 34.6557 62.746 34.5204 62.746 34.3173C62.746 34.2496 62.746 34.1819 62.6783 34.1142L62.0014 34.385L61.7307 34.1819V33.2343H60.58V33.0312H63.1521V33.2343H62.0691V33.1666Z" fill="#231F20"/>
<path d="M65.7242 32.5575C65.3181 32.2867 64.912 32.1514 64.6412 32.1514C64.3705 32.1514 64.1674 32.2191 63.9643 32.3544C63.7613 32.4898 63.6936 32.6929 63.6936 32.9636H63.9643V33.1667H63.6936V35.1296H63.4228V33.1667H63.1521V32.9636H63.4228C63.4228 32.6252 63.5582 32.3544 63.7613 32.1514C63.9643 31.9483 64.2351 31.8806 64.5735 31.8806C64.7766 31.8806 64.9797 31.9483 65.2504 32.016C65.3858 32.0837 65.5888 32.2191 65.8596 32.3544L65.7242 32.5575Z" fill="#231F20"/>
<path d="M65.5212 33.1666C65.5888 33.4373 65.7919 33.5727 66.1303 33.5727H66.2657L66.4688 33.8434C66.3334 34.1819 66.2657 34.3849 66.2657 34.5203C66.2657 34.8587 66.3334 35.0618 66.4011 35.1972L66.198 35.2649C66.0627 35.0618 65.995 34.8587 65.995 34.6557C65.995 34.5203 65.995 34.3849 66.0627 34.2496C66.0627 34.1819 66.1303 34.0465 66.198 33.8434C65.995 33.8434 65.7919 33.7757 65.6565 33.6404C65.4535 33.505 65.3858 33.3696 65.3181 33.1666C65.0473 33.3696 64.912 33.5727 64.912 33.8434C64.912 33.9788 64.9797 34.0465 65.115 34.0465C65.1827 34.0465 65.2504 34.0465 65.3181 33.9788C65.3858 33.9111 65.4535 33.9111 65.4535 33.8434H65.6565C65.7242 33.9111 65.7242 34.0465 65.7242 34.2496C65.7242 34.7911 65.4535 34.9941 64.912 34.9941C64.8443 34.9941 64.7089 34.9941 64.5735 34.9264C64.5059 34.9264 64.4382 34.8587 64.3028 34.7911C64.2351 34.6557 64.0997 34.4526 63.9644 34.1819L64.0997 34.0465C64.1674 34.2496 64.3028 34.4526 64.5059 34.7234L64.7089 34.7911C64.7766 34.8587 64.8443 34.8587 64.912 34.8587C65.0474 34.8587 65.1827 34.7911 65.3181 34.7234C65.4535 34.6557 65.4535 34.5203 65.4535 34.3849C65.4535 34.3172 65.4535 34.2496 65.3858 34.1819C65.2504 34.3172 65.115 34.3849 64.9797 34.3849C64.8443 34.3849 64.7089 34.3172 64.6412 34.2496C64.5735 34.1819 64.5059 34.0465 64.5059 33.9111C64.5059 33.7081 64.5735 33.505 64.7766 33.3019H63.7613V33.0989H66.5365V33.3019H65.5212V33.1666Z" fill="#231F20"/>
<path d="M67.0102 33.1666V34.9265H67.1456C67.3487 34.9265 67.5517 34.8588 67.8225 34.7234C68.0932 34.588 68.2286 34.385 68.2286 34.1819C68.2286 33.9789 68.0932 33.8435 67.8902 33.8435C67.8225 33.8435 67.6871 33.9112 67.5517 33.9789L67.4164 33.7758C67.5517 33.6404 67.7548 33.6404 67.9579 33.6404C68.0932 33.6404 68.2286 33.7081 68.364 33.8435C68.4317 33.9789 68.4994 34.1142 68.4994 34.2496C68.4994 34.4527 68.364 34.6557 68.1609 34.8588C67.9579 34.9942 67.7548 35.1295 67.5517 35.1295C67.3487 35.1972 67.1456 35.1972 66.8072 35.1972V33.1666H66.6041V32.9636H68.1609V32.8959C68.1609 32.7605 68.0932 32.6251 67.9579 32.5574C67.8225 32.4897 67.6871 32.4221 67.5517 32.4221C67.3487 32.4221 67.0779 32.4897 66.8072 32.6928L66.7395 32.4897C67.0779 32.2867 67.3487 32.219 67.6194 32.219C67.8225 32.219 68.0256 32.2867 68.2286 32.4221C68.364 32.5574 68.4994 32.7605 68.4994 32.9636H68.7701V33.1666H67.0102Z" fill="#231F20"/>
<path d="M68.9056 35.1971V33.1664H68.5671V32.9634H69.5148V33.1664H69.1763V35.1971H68.9056Z" fill="#231F20"/>
<path d="M71.8161 33.1666V35.1972H71.5454V34.7911C71.5454 34.3173 71.41 34.1142 71.2069 34.1142C71.1393 34.1142 71.0716 34.1819 71.0039 34.2496C70.9362 34.3173 70.9362 34.385 70.9362 34.5204H70.6655C70.6655 34.4527 70.5978 34.3173 70.5978 34.2496C70.5301 34.1819 70.4624 34.1142 70.327 34.1142C70.1916 34.1142 70.124 34.1819 70.0563 34.2496C69.9886 34.3173 69.9886 34.4527 69.9886 34.5204C69.9886 34.7911 70.124 34.8588 70.4624 34.8588H70.5301L70.4624 35.1296H70.3947C70.1916 35.1296 70.0563 35.0619 69.9209 34.9265C69.7855 34.7911 69.7178 34.6557 69.7178 34.4527C69.7178 34.2496 69.7855 34.1142 69.9209 33.9789C70.0563 33.8435 70.1916 33.7758 70.3947 33.7758C70.5978 33.7758 70.7331 33.9112 70.8685 34.1142C71.0039 33.9112 71.207 33.7758 71.3423 33.7758C71.4777 33.7758 71.6131 33.9112 71.6808 34.1142V33.2343H69.5148V33.0312H72.1546V33.2343H71.8161V33.1666Z" fill="#231F20"/>
<path d="M73.3729 34.3171C73.3729 34.4525 73.3729 34.5879 73.4406 34.7232C73.5083 34.9263 73.6437 34.994 73.779 34.994C73.8467 34.994 73.9144 34.994 73.9821 34.9263L74.0498 35.1294C73.9821 35.1971 73.8467 35.1971 73.779 35.1971C73.3729 35.1971 73.1022 34.8586 73.1022 34.1817C73.1022 33.7756 73.3729 33.3695 73.8467 32.9634H74.2529V33.1664C73.9821 33.2341 73.779 33.3695 73.6437 33.5726C73.4406 33.7756 73.3729 34.0464 73.3729 34.3171Z" fill="#231F20"/>
<path d="M76.4865 33.1666V35.1972H76.2157V34.7911C76.2157 34.3173 76.0804 34.1142 75.8773 34.1142C75.8096 34.1142 75.7419 34.1819 75.6742 34.2496C75.6066 34.3173 75.6065 34.385 75.6065 34.5204H75.3358C75.3358 34.4527 75.2681 34.3173 75.2681 34.2496C75.2004 34.1819 75.1327 34.1142 74.9974 34.1142C74.862 34.1142 74.7943 34.1819 74.7266 34.2496C74.6589 34.3173 74.6589 34.4527 74.6589 34.5204C74.6589 34.7911 74.7943 34.8588 75.1327 34.8588H75.2004L75.1327 35.1296H75.0651C74.862 35.1296 74.7266 35.0619 74.5912 34.9265C74.4559 34.7911 74.3882 34.6557 74.3882 34.4527C74.3882 34.2496 74.4559 34.1142 74.5912 33.9789C74.7266 33.8435 74.862 33.7758 75.0651 33.7758C75.2681 33.7758 75.4035 33.9112 75.5389 34.1142C75.6742 33.9112 75.8773 33.7758 76.0127 33.7758C76.1481 33.7758 76.2834 33.9112 76.3511 34.1142V33.2343H74.1851V33.0312H76.8249V33.2343H76.4865V33.1666Z" fill="#231F20"/>
<path d="M78.7202 33.1665V35.1971H78.4494V35.0617C78.4494 34.8587 78.3141 34.6556 78.111 34.4526C77.9079 34.2495 77.6372 34.1141 77.5018 34.1141C77.4341 34.1141 77.2988 34.1141 77.2311 34.1818C77.1634 34.2495 77.0957 34.3172 77.0957 34.3849C77.0957 34.4526 77.0957 34.5879 77.1634 34.5879C77.2311 34.6556 77.2988 34.6556 77.4341 34.6556C77.5018 34.6556 77.5695 34.6556 77.6372 34.5879L77.7049 34.8587C77.6372 34.9264 77.5018 34.9264 77.3664 34.9264C77.2311 34.9264 77.0957 34.8587 76.9603 34.7233C76.8926 34.5879 76.8249 34.4526 76.8249 34.3172C76.8249 34.1141 76.8926 33.9787 76.9603 33.9111C77.0957 33.7757 77.2311 33.708 77.3664 33.708C77.7726 33.708 78.111 33.9111 78.3818 34.3849V33.0988H76.5542V32.8958H78.8556V33.0988H78.7202V33.1665Z" fill="#231F20"/>
<path d="M79.9385 35.3324C79.6678 35.3324 79.4647 35.2647 79.3293 35.1971C79.1263 34.994 78.9909 34.6556 78.9909 34.3171C78.9909 34.1141 79.0586 33.911 79.194 33.7079C79.2617 33.5726 79.397 33.3695 79.6001 33.1664H78.7878V32.9634H80.0739V33.1664C79.8708 33.2341 79.6678 33.3695 79.5324 33.6403C79.3293 33.8433 79.2616 34.1141 79.2616 34.3171C79.2616 34.8586 79.4647 35.1294 79.9385 35.1294C80.0062 35.1294 80.0739 35.1294 80.1416 35.0617V35.3324H79.9385Z" fill="#231F20"/>
<path d="M80.2093 33.1664V34.0464C80.6154 33.7756 80.9538 33.5726 81.2246 33.5049L81.4953 33.8433C81.36 34.1817 81.2923 34.3848 81.2923 34.5879C81.2923 34.7232 81.36 34.9263 81.4277 35.1294L81.2246 35.1971C81.1569 34.9263 81.0892 34.7909 81.0892 34.6556C81.0892 34.3848 81.0892 34.1141 81.1569 33.8433C80.8862 33.9787 80.5477 34.1817 80.1416 34.5202L79.9385 34.3171V33.1664H79.7355V32.9634H81.6984V33.1664H80.2093Z" fill="#231F20"/>
<path d="M83.6613 33.1665V35.1971H83.3906V35.0617C83.3906 34.8587 83.2552 34.6556 83.0522 34.4526C82.8491 34.2495 82.5784 34.1141 82.443 34.1141C82.3753 34.1141 82.2399 34.1141 82.1722 34.1818C82.1045 34.2495 82.0369 34.3172 82.0369 34.3849C82.0369 34.4526 82.0369 34.5879 82.1045 34.5879C82.1722 34.6556 82.2399 34.6556 82.3753 34.6556C82.443 34.6556 82.5107 34.6556 82.5784 34.5879L82.646 34.8587C82.5784 34.9264 82.443 34.9264 82.3076 34.9264C82.1722 34.9264 82.0369 34.8587 81.9015 34.7233C81.7661 34.5879 81.7661 34.4526 81.7661 34.3172C81.7661 34.1141 81.8338 33.9787 81.9015 33.9111C82.0369 33.7757 82.1722 33.708 82.3076 33.708C82.7137 33.708 83.0522 33.9111 83.3229 34.3849V33.0988H81.4954V32.8958H83.7967V33.0988H83.6613V33.1665Z" fill="#231F20"/>
</svg>
