<svg width="51" height="32" viewBox="0 0 51 32" fill="none" xmlns="http://www.w3.org/2000/svg">
<path fill-rule="evenodd" clip-rule="evenodd" d="M37.3101 4.11818L29.8919 11.5352L30.4123 15.6991L31.7789 12.8371L36.0082 18.2377L41.9292 0.0183105L22.2126 8.21684L27.5485 11.0142L37.3101 4.11818Z" fill="#8C3494"/>
<path d="M30.8686 17.1323C30.8686 17.1323 24.5889 17.1323 23.0606 17.1323C17.1066 18.0426 16.4886 26.6975 22.9959 27.8689H30.8704V20.0608C33.4947 20.1482 34.0367 23.4223 32.1065 24.6152C32.4964 25.0715 34.0582 26.7616 34.0582 26.7616C38.1545 23.227 35.8129 17.4132 30.8686 17.1323ZM28.0066 24.9404C28.0066 24.9404 23.9726 24.9404 23.6475 24.9404C20.9472 25.1021 20.068 20.6453 23.3864 20.0602C24.3631 20.0602 28.0066 20.0602 28.0066 20.0602V24.9404Z" fill="#8C3494"/>
<path fill-rule="evenodd" clip-rule="evenodd" d="M47.2004 21.0358C45.8985 21.0358 44.3366 21.0358 44.3366 21.0358L43.1006 23.8996C43.1006 23.8996 46.4189 23.8996 46.7447 23.8996C47.4765 23.8666 47.51 24.9404 46.7447 25.0051C45.8009 25.0051 40.4338 25.0051 40.4338 25.0051V20.0608H50.1295V17.1323C50.1295 17.1323 48.7796 17.1323 48.6982 17.1323C48.2754 11.0808 41.0369 10.9023 39.133 14.2039C39.5067 14.5129 41.2794 16.0909 41.2794 16.0909C42.3681 14.3823 45.3942 14.465 45.8338 17.1317H37.5694V27.8683H46.8746C48.9898 27.8353 49.9648 26.2735 50.193 24.9398C50.3241 22.7923 49.0216 21.361 47.2004 21.0358Z" fill="#8C3494"/>
<path fill-rule="evenodd" clip-rule="evenodd" d="M19.3506 17.1323H15.5759C14.3727 18.5966 12.2905 24.5176 16.4221 28.9744C16.4221 28.9744 18.2115 27.4461 18.5684 27.1532C17.3012 25.9154 15.186 20.8735 19.3506 17.1323Z" fill="#8C3494"/>
<path fill-rule="evenodd" clip-rule="evenodd" d="M9.74416 29.0767C9.74416 30.3822 8.68476 31.4416 7.37922 31.4416C6.07189 31.4416 5.01428 30.3822 5.01428 29.0767C5.01428 27.7694 6.07368 26.71 7.37922 26.71C8.68476 26.7118 9.74416 27.7712 9.74416 29.0767Z" fill="#8C3494"/>
<path fill-rule="evenodd" clip-rule="evenodd" d="M4.70882 17.1323C-1.24514 18.0426 -1.86318 26.6975 4.64415 27.8689H4.68726C5.14839 26.8424 6.17965 26.1286 7.37739 26.1286C8.57513 26.1286 9.60518 26.8424 10.0675 27.8689H12.5163C12.5163 27.5101 12.5163 17.1323 12.5163 17.1323C12.5163 17.1323 6.23894 17.1323 4.70882 17.1323ZM9.65489 24.9404C9.65489 24.9404 5.6209 24.9404 5.29572 24.9404C2.59541 25.1021 1.71627 20.6453 5.03641 20.0602C6.01316 20.0602 9.65669 20.0602 9.65669 20.0602V24.9404H9.65489Z" fill="#8C3494"/>
<path fill-rule="evenodd" clip-rule="evenodd" d="M7.50853 14.5937C8.46672 14.432 8.93983 12.4617 7.37798 12.0239C7.19951 12.0239 4.83997 12.0239 4.83997 12.0239V15.7651H5.8808V14.5937L7.05219 15.7651H8.67992L7.50853 14.5937ZM7.38457 13.272C7.38457 13.4073 7.27377 13.5181 7.13843 13.5181H5.89398V12.9977H7.13843C7.27377 12.9977 7.38457 13.1085 7.38457 13.2438V13.272Z" fill="#8C3494"/>
<path fill-rule="evenodd" clip-rule="evenodd" d="M10.4909 11.9646C9.44346 11.9646 8.59546 12.8138 8.59546 13.86C8.59546 14.9074 9.44466 15.7554 10.4909 15.7554C11.5383 15.7554 12.3863 14.9062 12.3863 13.86C12.3881 12.8138 11.5389 11.9646 10.4909 11.9646ZM10.4909 14.6931C10.0315 14.6931 9.65785 14.3194 9.65785 13.86C9.65785 13.4007 10.0315 13.027 10.4909 13.027C10.9502 13.027 11.3239 13.4007 11.3239 13.86C11.3257 14.3212 10.952 14.6931 10.4909 14.6931Z" fill="#8C3494"/>
<path fill-rule="evenodd" clip-rule="evenodd" d="M21.2478 13.042H22.9516V11.9431H21.5089C20.3752 11.9431 19.4482 12.7989 19.4482 13.8451C19.4482 14.8914 20.3752 15.7471 21.5089 15.7471H22.9516V14.6482H21.2478C20.9981 14.6482 20.7753 14.529 20.6315 14.344H22.9516V13.3457H20.6315C20.7747 13.1612 20.9981 13.042 21.2478 13.042Z" fill="#8C3494"/>
<path fill-rule="evenodd" clip-rule="evenodd" d="M14.4739 14.647C14.0445 14.647 13.6924 14.2949 13.6924 13.8655V13.8223C13.6924 13.393 14.0445 13.0408 14.4739 13.0408H16.0933V11.9419H14.6404C13.5068 11.9419 12.5797 12.7977 12.5797 13.8439C12.5797 14.8901 13.5068 15.7459 14.6404 15.7459H16.0933V14.647H14.4739Z" fill="#8C3494"/>
<path fill-rule="evenodd" clip-rule="evenodd" d="M26.9089 12.0161H23.2372V12.9995H24.5823V15.6878H25.5657V12.9995H26.9089V12.0161Z" fill="#8C3494"/>
<path d="M18.169 13.8373L19.977 12.0161H18.5128L17.4965 13.0402V12.0161H16.5131V15.6878H17.4965V14.635L18.5409 15.6878H20.0033L18.169 13.8373Z" fill="#8C3494"/>
<path d="M32.9557 29.6881C32.794 29.7211 32.6503 29.8223 32.5275 29.9936C32.4084 30.1571 32.3491 30.3223 32.3491 30.4894C32.3491 30.59 32.3706 30.6877 32.412 30.7817C32.4647 30.902 32.5359 30.9619 32.627 30.9619C32.6731 30.9619 32.733 30.9374 32.8054 30.8877L32.9078 31.1602C32.815 31.2165 32.7258 31.2428 32.6383 31.2428C32.5192 31.2428 32.4072 31.1997 32.2964 31.1105C32.2335 31.059 32.1724 30.9619 32.1161 30.8182C32.088 30.7469 32.073 30.6415 32.073 30.499V30.3996C32.073 30.1762 32.1922 29.9271 32.4281 29.6474C32.4778 29.5893 32.5623 29.5085 32.6809 29.4031H33.0528V29.6744C33.0168 29.6833 32.9857 29.6863 32.9557 29.6881Z" fill="#8C3494"/>
<path d="M34.6002 29.6799V31.225H34.2912V31.025C34.2912 30.9555 34.2385 30.8681 34.1343 30.7603C34.0553 30.6794 33.9726 30.6082 33.8864 30.5471C33.7906 30.4812 33.6864 30.4477 33.5726 30.4477C33.457 30.4477 33.3726 30.4974 33.3217 30.5962C33.3151 30.6076 33.3115 30.6207 33.3115 30.6375C33.3115 30.6788 33.3312 30.7154 33.3726 30.7483C33.4121 30.7812 33.4534 30.798 33.4947 30.798C33.5277 30.798 33.6055 30.7735 33.7295 30.7255L33.8205 31.0064C33.6834 31.0777 33.5678 31.1124 33.475 31.1124C33.3726 31.1124 33.2785 31.0843 33.1923 31.0268C33.1067 30.9687 33.045 30.8926 33.0055 30.7986C32.9875 30.7573 32.9791 30.7076 32.9791 30.6483C32.9791 30.4734 33.0516 30.3393 33.1953 30.2482C33.2959 30.1824 33.4037 30.1488 33.5175 30.1488C33.5289 30.1488 33.5391 30.1488 33.5474 30.1488C33.5456 30.0943 33.5163 30.035 33.4618 29.9668C33.4073 29.8991 33.3528 29.8662 33.3013 29.8662H32.9593V29.6763H32.8222V29.405H34.8117V29.6763H34.6002V29.6799ZM34.2912 29.6799H33.5642C33.769 29.8141 33.8768 29.9871 33.8846 30.2021C34.0152 30.2536 34.1505 30.356 34.2912 30.5076V29.6799Z" fill="#8C3494"/>
<path d="M35.2015 29.6797V31.2248H34.8925V29.6797H34.6643V29.4084H35.4081V29.6797H35.2015Z" fill="#8C3494"/>
<path d="M36.692 29.6797H35.2991V29.4084H37.2256V29.6797H37.0124V31.2248H36.74C36.7136 31.1458 36.5795 31.023 36.3381 30.8565C36.2387 30.7888 36.1034 30.7224 35.9297 30.6583C35.7446 30.5906 35.5991 30.5559 35.4883 30.5559L35.4057 30.2487C35.4781 30.1906 35.677 30.0918 36.0039 29.951C36.1435 29.8881 36.3734 29.7989 36.692 29.6797ZM36.71 30.0139C36.6519 30.0337 36.5908 30.0552 36.525 30.0816C36.4273 30.1247 36.2525 30.202 35.9962 30.3127L35.9369 30.3391C36.1812 30.4247 36.4142 30.5505 36.6375 30.7176C36.6657 30.7391 36.6903 30.7571 36.71 30.7721V30.0139Z" fill="#8C3494"/>
<path d="M37.6162 29.6797V31.2248H37.3071V29.6797H37.079V29.4084H37.8228V29.6797H37.6162Z" fill="#8C3494"/>
<path d="M37.7131 29.6798V29.4085H38.6252C38.627 29.3983 38.6288 29.3905 38.6288 29.3851C38.6288 29.2432 38.5629 29.1504 38.4288 29.1061C38.4108 29.1013 38.3911 29.0995 38.3695 29.0995C38.3366 29.0995 38.297 29.1061 38.2473 29.1192C38.1815 29.1372 38.1413 29.1474 38.1299 29.1492C38.0772 29.1576 38.0305 29.1737 37.9928 29.1989C37.9413 29.2336 37.8838 29.2648 37.8191 29.2929L37.7197 29.0629C37.8371 28.9821 37.994 28.9108 38.1856 28.8533C38.2665 28.83 38.3425 28.8186 38.4156 28.8186C38.4917 28.8186 38.5791 28.8468 38.6749 28.9012C38.8384 29.0007 38.9246 29.1689 38.9312 29.4085H39.1079V29.6798H37.7131ZM38.7875 31.4842C38.6617 31.3704 38.53 31.2662 38.3875 31.1668C38.3198 31.1207 38.2072 31.0674 38.0485 31.0099C37.9227 30.965 37.8503 30.9422 37.8287 30.9422L37.8323 30.5805C37.8587 30.5805 37.8982 30.5823 37.9515 30.5853C38.0042 30.5889 38.0455 30.5901 38.0719 30.5901C38.2126 30.5901 38.3264 30.5721 38.4138 30.5356C38.5809 30.4661 38.6635 30.3835 38.6635 30.2876C38.6635 30.2182 38.6324 30.1607 38.5677 30.114C38.5066 30.0774 38.4438 30.0427 38.3809 30.0098C38.3629 30.0014 38.3461 29.9966 38.3282 29.9966C38.2904 29.9966 38.2503 30.0068 38.206 30.0247C38.1515 30.0493 38.127 30.0792 38.1299 30.1104C38.1413 30.1912 38.2258 30.2242 38.3827 30.211L38.2156 30.4673C38.1479 30.4721 38.0784 30.4505 38.009 30.4026C37.882 30.317 37.8191 30.2128 37.8191 30.0888C37.8191 29.9648 37.8838 29.869 38.0126 29.7996C38.1186 29.7415 38.2389 29.7139 38.3743 29.7139C38.4336 29.7139 38.4851 29.7241 38.5264 29.7421C38.5695 29.7618 38.612 29.7834 38.657 29.8067C38.8666 29.9139 38.9726 30.0762 38.9726 30.2942C38.9726 30.4493 38.9079 30.5751 38.7791 30.6727C38.6797 30.7452 38.5396 30.7985 38.3563 30.8296C38.4108 30.856 38.4905 30.8991 38.5929 30.9602C38.7677 31.0925 38.9085 31.2111 39.0157 31.3153L38.7875 31.4842Z" fill="#8C3494"/>
<path d="M40.9572 29.6796V31.2247H40.6482V30.6115C40.6482 30.5588 40.6248 30.5043 40.5787 30.4462C40.5326 30.3899 40.4829 30.3617 40.4314 30.3617C40.3835 30.3617 40.3374 30.3917 40.2942 30.451C40.2511 30.5103 40.2284 30.5779 40.2284 30.654H39.8948C39.8948 30.5684 39.8732 30.4953 39.8289 30.4324C39.7846 30.3695 39.7349 30.3396 39.6768 30.3396C39.6289 30.3396 39.5828 30.3563 39.5379 30.3911C39.4935 30.4258 39.4702 30.4653 39.4654 30.5103L39.4552 30.5911V30.6222C39.4552 30.7809 39.5528 30.86 39.7463 30.86C39.7762 30.86 39.8289 30.8534 39.9032 30.8402L39.7942 31.1528C39.7313 31.1594 39.6918 31.1642 39.6786 31.1642C39.5331 31.1642 39.4007 31.1115 39.2786 31.0037C39.2306 30.9624 39.1911 30.9013 39.1594 30.8169C39.1312 30.7426 39.1163 30.6696 39.1163 30.5989C39.1163 30.4318 39.1678 30.2965 39.2702 30.1923C39.3726 30.0881 39.5079 30.0371 39.675 30.0371C39.8301 30.0371 39.9607 30.1114 40.0667 30.2587C40.1805 30.1102 40.3032 30.0371 40.435 30.0371C40.5074 30.0371 40.5769 30.0701 40.6446 30.1366V29.6802H38.9785V29.4089H41.1333V29.6802H40.9566V29.6796H40.9572Z" fill="#8C3494"/>
<path d="M43.2761 29.6797H41.8831V29.4084H43.8097V29.6797H43.5947V31.2248H43.3222C43.2959 31.1458 43.1617 31.023 42.9204 30.8565C42.8209 30.7888 42.6856 30.7224 42.5119 30.6583C42.3269 30.5906 42.1814 30.5559 42.0706 30.5559L41.9879 30.2487C42.0604 30.1906 42.2592 30.0918 42.5862 29.951C42.7275 29.8881 42.9569 29.7989 43.2761 29.6797ZM43.2941 30.0139C43.236 30.0337 43.1749 30.0552 43.109 30.0816C43.0114 30.1247 42.8365 30.202 42.5802 30.3127L42.5209 30.3391C42.7653 30.4247 42.9982 30.5505 43.2216 30.7176C43.2497 30.7391 43.2743 30.7571 43.2941 30.7721V30.0139Z" fill="#8C3494"/>
<path d="M44.3283 29.6798C44.2307 29.8152 44.181 29.926 44.181 30.0152C44.181 30.0565 44.2307 30.2182 44.3313 30.5045C44.3828 30.6482 44.4092 30.7674 44.4092 30.8614C44.4092 31.0417 44.3086 31.1668 44.1067 31.2381C44.0457 31.2614 43.9367 31.2812 43.778 31.2962L43.8193 31.0285C44.0013 30.9908 44.0936 30.9261 44.0936 30.835C44.0936 30.7506 44.0558 30.6218 43.9798 30.4482C43.9037 30.2745 43.866 30.1475 43.866 30.0649C43.866 29.9589 43.9103 29.8301 43.9983 29.678H43.6761V29.4067H44.5385V29.678H44.3289V29.6798H44.3283Z" fill="#8C3494"/>
<path d="M44.9913 29.6797V31.2248H44.6804V29.6797H44.4523V29.4084H45.1961V29.6797H44.9913Z" fill="#8C3494"/>
<path d="M45.7033 30.4123C45.5578 30.4123 45.4422 30.3662 45.3547 30.2752C45.2673 30.1842 45.2242 30.0668 45.2242 29.9231C45.2242 29.7907 45.2685 29.6799 45.3583 29.5907C45.4482 29.5015 45.5601 29.4565 45.6937 29.4565C45.8758 29.4565 46.0063 29.5476 46.0872 29.729C46.1219 29.8069 46.1399 29.8829 46.1399 29.9572C46.1399 30.0961 46.1021 30.2069 46.0261 30.2878C45.9512 30.371 45.844 30.4123 45.7033 30.4123ZM46.0422 31.4071C45.6506 31.0765 45.3847 30.8801 45.2439 30.8124L45.2475 30.3842C45.7865 30.7693 46.1381 31.0765 46.3051 31.3064V31.6239L46.0422 31.4071ZM45.768 29.7823C45.7368 29.7608 45.7069 29.7524 45.6751 29.756C45.5578 29.7757 45.5003 29.8338 45.5003 29.9296C45.5003 29.9794 45.52 30.0237 45.5584 30.0668C45.5961 30.1081 45.641 30.1297 45.6889 30.1297L45.732 30.1231C45.8195 30.0949 45.8644 30.0422 45.8644 29.9626C45.8638 29.8883 45.8326 29.8272 45.768 29.7823Z" fill="#8C3494"/>
<path d="M48.2485 29.2271C47.8879 29.0007 47.5939 28.8869 47.3645 28.8869C47.0932 28.8869 46.895 28.9726 46.7681 29.1444C46.7249 29.2037 46.7004 29.2918 46.6956 29.4073H46.9118V29.6786H46.6956V31.2237H46.3818V29.6786H46.1752V29.4073H46.3818C46.3884 29.1875 46.4608 29.0091 46.598 28.8737C46.7351 28.7366 46.9238 28.6522 47.1597 28.621C47.1843 28.6192 47.2292 28.6126 47.2987 28.6042H47.3645C47.5532 28.6042 47.7394 28.6456 47.9263 28.7264C48.0269 28.7725 48.1922 28.8672 48.4221 29.0091L48.2485 29.2271Z" fill="#8C3494"/>
<path d="M47.9921 29.6797V29.6899C48.1209 29.6965 48.2568 29.7378 48.3952 29.8121C48.5916 29.9193 48.691 30.0648 48.691 30.2498C48.691 30.357 48.6581 30.4499 48.5916 30.5289C48.5257 30.6068 48.4395 30.6595 48.3341 30.684C48.2281 30.7086 48.1376 30.7122 48.0628 30.6954V30.4031C48.0975 30.4079 48.1305 30.4097 48.1604 30.4097C48.3155 30.4097 48.3934 30.3534 48.3934 30.2427C48.3934 30.1103 48.2592 30.0265 47.9915 29.9917V31.2248H47.719C47.6747 31.1392 47.6316 31.0727 47.5867 31.0266C47.5717 31.0098 47.5322 30.9589 47.4675 30.8727C47.4477 30.8445 47.4112 30.8098 47.3585 30.7667C47.3058 30.7235 47.2693 30.6888 47.2495 30.6607C47.2411 30.6475 47.2166 30.6343 47.1771 30.6193C47.0429 30.5732 46.9339 30.5481 46.8513 30.5481L46.7686 30.2409C46.8363 30.1911 46.9902 30.1001 47.2298 29.9648C47.2477 29.9516 47.3208 29.9085 47.4477 29.836C47.4939 29.8079 47.5717 29.7636 47.6789 29.7019V29.6785H46.7021V29.4072H48.8239V29.6785L47.9921 29.6797ZM47.6831 30.0366C47.6334 30.0744 47.5561 30.1259 47.4531 30.1905C47.4268 30.2019 47.3968 30.2235 47.3621 30.2564C47.3274 30.2894 47.2962 30.3211 47.2645 30.3475C47.2974 30.3774 47.3501 30.4187 47.4232 30.4732C47.4909 30.5511 47.5783 30.6451 47.6825 30.7589V30.0366H47.6831Z" fill="#8C3494"/>
<path d="M49.2893 30.4123C49.1438 30.4123 49.0282 30.3662 48.9408 30.2752C48.8534 30.1842 48.8102 30.0668 48.8102 29.9231C48.8102 29.7907 48.8546 29.6799 48.9444 29.5907C49.0342 29.5015 49.1462 29.4565 49.2798 29.4565C49.4618 29.4565 49.5924 29.5476 49.6732 29.729C49.7079 29.8069 49.7259 29.8829 49.7259 29.9572C49.7259 30.0961 49.6882 30.2069 49.6121 30.2878C49.5373 30.371 49.4301 30.4123 49.2893 30.4123ZM49.6265 31.4071C49.2348 31.0765 48.9689 30.8801 48.8282 30.8124L48.8318 30.3842C49.3708 30.7693 49.7223 31.0765 49.8894 31.3064V31.6239L49.6265 31.4071ZM49.354 29.7823C49.3229 29.7608 49.2929 29.7524 49.2612 29.756C49.1438 29.7757 49.0863 29.8338 49.0863 29.9296C49.0863 29.9794 49.1061 30.0237 49.1444 30.0668C49.1821 30.1081 49.2271 30.1297 49.275 30.1297L49.3181 30.1231C49.4055 30.0949 49.4504 30.0422 49.4504 29.9626C49.4498 29.8883 49.4181 29.8272 49.354 29.7823Z" fill="#8C3494"/>
<path d="M15.1232 31.3573L15.7006 31.5528L15.9308 31.3573L15.3547 31.1553L15.1232 31.3573Z" fill="#8C3494"/>
<path d="M15.3149 29.7594V29.4109H10.7934V29.7594H11.5534V30.538C11.5534 30.538 12.1349 30.538 12.2061 30.538C12.2061 30.538 12.3912 30.4787 12.4361 30.3841C12.4361 30.4948 12.4361 30.6488 12.4361 30.6913C12.4361 30.8284 12.3337 30.9476 12.2061 30.9476C12.0792 30.9476 11.3036 30.9476 11.2461 30.9476C11.1881 30.9476 11.1306 30.9212 11.1306 30.6913C11.1306 30.4601 11.1306 29.966 11.1306 29.966H10.7934C10.7934 29.966 10.7934 30.8206 10.7934 30.8967C10.7934 30.9727 10.8413 31.2452 11.0844 31.2452C11.3276 31.2452 12.3337 31.2452 12.3852 31.2452C12.5882 31.2386 12.7319 31.032 12.7439 30.8584C12.7439 30.4835 12.7439 29.966 12.7439 29.966H12.4367C12.4056 30.1032 12.4235 30.196 12.2828 30.2307C12.1421 30.2307 11.8995 30.2307 11.8995 30.2307V29.76H13.0134V31.2458H13.3967V29.76H13.6662V31.2458C13.6662 31.2458 14.843 31.2458 14.9334 31.2458C15.0226 31.2458 15.3167 31.1716 15.3167 30.8458C15.3167 30.5218 15.3167 29.9666 15.3167 29.9666H15.0094C15.0094 30.0523 14.9963 30.1798 14.8555 30.1798C14.7148 30.1798 14.0111 30.1798 14.0111 30.1798V29.76L15.3149 29.7594ZM14.816 30.4865C14.8741 30.5032 14.9502 30.4104 15.0076 30.3326C15.0076 30.4182 15.0076 30.5541 15.0076 30.6913C15.0076 30.8284 14.8987 30.9476 14.816 30.9476C14.7334 30.9476 14.0093 30.9476 14.0093 30.9476V30.4865C14.0111 30.4865 14.7465 30.4865 14.816 30.4865Z" fill="#8C3494"/>
<path d="M16.5075 30.1792H15.7383V30.5893H16.5075V30.1792Z" fill="#8C3494"/>
<path d="M16.9295 29.4103V29.7588H18.1937V29.9654H16.9295C16.9295 29.9654 16.9295 30.7338 16.9295 30.7931C16.9577 31.0625 17.0948 31.244 17.3577 31.244C17.6715 31.244 18.5015 31.244 18.5015 31.244V29.7582H18.771V31.244H19.1166V29.4097H16.9295V29.4103ZM18.1937 30.9985C18.1937 30.9985 17.4583 30.9985 17.4254 30.9985C17.3098 30.9817 17.2337 30.8446 17.2337 30.6913C17.2337 30.5379 17.2337 30.2816 17.2337 30.2816H18.1937V30.9985Z" fill="#8C3494"/>
<path d="M20.7736 29.7594H22.3402V29.966C22.2689 29.966 21.924 29.966 21.8791 29.966C21.8593 30.1116 21.6228 30.1894 21.5719 29.966C21.3155 29.966 20.7736 29.966 20.7736 29.966C20.7736 29.966 20.7736 30.7595 20.7736 30.8452C20.7736 30.9308 20.7867 31.2105 21.0215 31.2452C21.2395 31.2452 21.6497 31.2452 21.6497 31.2452V30.9476C21.6497 30.9476 21.3042 30.9476 21.2281 30.9476C21.1455 30.9212 21.0742 30.8715 21.0742 30.7428C21.0742 30.5889 21.0742 30.2816 21.0742 30.2816H21.497V30.538H21.8803V30.3331C21.8539 30.2391 22.2833 30.2475 22.3031 30.3331C22.3031 30.4601 22.3031 31.2452 22.3031 31.2452H22.6486V29.7594H22.8786V31.2452H23.2241V29.4109H20.7754V29.7594H20.7736Z" fill="#8C3494"/>
<path d="M20.2281 29.5127C20.0873 29.5127 19.4118 29.5127 19.4118 29.5127C19.4118 29.5127 19.4118 29.9175 19.4118 29.9936C19.4429 30.1475 19.5256 30.3373 19.8053 30.3523C20.0861 30.3523 20.458 30.3523 20.458 30.3523V29.7588C20.4395 29.6582 20.37 29.5295 20.2281 29.5127ZM19.9801 30.0271C19.8328 30.0271 19.7142 29.9726 19.7142 29.9067C19.7142 29.8409 19.8334 29.7864 19.9801 29.7864C20.1275 29.7864 20.246 29.8409 20.246 29.9067C20.246 29.9726 20.1275 30.0271 19.9801 30.0271Z" fill="#8C3494"/>
<path d="M19.4681 30.5342V30.8366L20.4526 31.2444V30.924L19.4681 30.5342Z" fill="#8C3494"/>
<path d="M28.499 29.5127C28.3583 29.5127 27.6827 29.5127 27.6827 29.5127C27.6827 29.5127 27.6827 29.9175 27.6827 29.9936C27.7139 30.1475 27.7965 30.3373 28.0762 30.3523C28.3571 30.3523 28.729 30.3523 28.729 30.3523V29.7588C28.7104 29.6582 28.6391 29.5295 28.499 29.5127ZM28.2511 30.0271C28.1037 30.0271 27.9852 29.9726 27.9852 29.9067C27.9852 29.8409 28.1043 29.7864 28.2511 29.7864C28.3984 29.7864 28.517 29.8409 28.517 29.9067C28.517 29.9726 28.3984 30.0271 28.2511 30.0271Z" fill="#8C3494"/>
<path d="M27.7372 30.5342V30.8366L28.7236 31.2444V30.924L27.7372 30.5342Z" fill="#8C3494"/>
<path d="M30.5927 29.966V29.7594H31.2287V29.4109H29.0206V29.7594H30.2854V29.966H29.0212C29.0212 29.966 29.0212 30.7344 29.0212 30.7937C29.0494 31.0632 29.1865 31.2446 29.4494 31.2446C29.7632 31.2446 30.5933 31.2446 30.5933 31.2446V30.3326H30.9005C30.952 30.3326 30.9652 30.3062 30.9765 30.3841C30.9765 30.4781 30.9765 30.538 30.9765 30.538C30.9568 30.614 30.9502 30.6667 30.9005 30.6919C30.849 30.6919 30.7879 30.6919 30.7879 30.6919V30.9991H31.0161C31.0921 30.9907 31.2341 30.9051 31.246 30.7943C31.246 30.6242 31.246 29.9666 31.246 29.9666H30.5927V29.966ZM30.2854 30.9985C30.2854 30.9985 29.55 30.9985 29.5189 30.9985C29.4033 30.9817 29.3273 30.8446 29.3273 30.6913C29.3273 30.538 29.3273 30.2816 29.3273 30.2816H30.2807L30.2854 30.3331V30.9985Z" fill="#8C3494"/>
<path d="M24.2567 29.4103V29.7588H25.5209V29.9654H24.2567C24.2567 29.9654 24.2567 30.7338 24.2567 30.7931C24.283 31.0625 24.4219 31.244 24.6848 31.244C24.9987 31.244 25.8287 31.244 25.8287 31.244V29.7582H26.2287L26.0832 30.0493V30.2541C26.0832 30.2541 26.3012 30.2541 26.3527 30.2541C26.4946 30.2708 26.5443 30.3649 26.5443 30.6128C26.5443 30.7829 26.5048 30.9068 26.3725 30.92C26.2898 30.92 26.1215 30.92 26.1215 30.92V31.2272C26.1215 31.2272 26.3132 31.2272 26.391 31.2272C26.4671 31.2272 26.8192 31.262 26.8522 30.92C26.8899 30.2277 26.9234 30.0493 26.4294 29.9978L26.5018 29.7582H27.042V31.244H27.3875V29.4097H24.2567V29.4103ZM25.5209 30.9985C25.5209 30.9985 24.7855 30.9985 24.7525 30.9985C24.6369 30.9817 24.5609 30.8446 24.5609 30.6913C24.5609 30.5379 24.5609 30.2816 24.5609 30.2816H25.5209V30.9985Z" fill="#8C3494"/>
</svg>
